Dhyana.ufo
<glyph name="exclam" format="1">
  <advance width="448"/>
  <unicode hex="0021"/>
  <outline>
    <contour>
      <point x="327" y="186" type="line" smooth="no"/>
      <point x="327" y="-16" type="line" smooth="no"/>
      <point x="118" y="-16" type="line" smooth="no"/>
      <point x="118" y="186" type="line" smooth="no"/>
    </contour>
    <contour>
      <point x="314" y="399" type="line" smooth="no"/>
      <point x="140" y="399" type="line" smooth="no"/>
      <point x="140" y="1579" type="line" smooth="no"/>
      <point x="314" y="1579" type="line" smooth="no"/>
    </contour>
  </outline>
</glyph>
<glyph name="quotedbl" format="1">
  <advance width="796"/>
  <unicode hex="0022"/>
  <outline>
    <contour>
      <point x="453" y="1508" type="line" smooth="yes"/>
      <point x="452" y="1515"/>
      <point x="451.667" y="1522.78"/>
      <point x="451.667" y="1530.85" type="curve" smooth="yes"/>
      <point x="451.667" y="1547"/>
      <point x="453" y="1564.33"/>
      <point x="453" y="1579" type="curve" smooth="no"/>
      <point x="681" y="1579" type="line" smooth="no"/>
      <point x="681" y="1564.33"/>
      <point x="682.333" y="1547"/>
      <point x="682.333" y="1530.85" type="curve" smooth="yes"/>
      <point x="682.333" y="1522.78"/>
      <point x="682" y="1515"/>
      <point x="681" y="1508" type="curve" smooth="yes"/>
      <point x="621" y="1058" type="line" smooth="no"/>
      <point x="513" y="1058" type="line" smooth="no"/>
    </contour>
    <contour>
      <point x="115" y="1508" type="line" smooth="yes"/>
      <point x="114" y="1515"/>
      <point x="113.667" y="1522.78"/>
      <point x="113.667" y="1530.85" type="curve" smooth="yes"/>
      <point x="113.667" y="1547"/>
      <point x="115" y="1564.33"/>
      <point x="115" y="1579" type="curve" smooth="no"/>
      <point x="343" y="1579" type="line" smooth="no"/>
      <point x="343" y="1564.33"/>
      <point x="344.333" y="1547"/>
      <point x="344.333" y="1530.85" type="curve" smooth="yes"/>
      <point x="344.333" y="1522.78"/>
      <point x="344" y="1515"/>
      <point x="343" y="1508" type="curve" smooth="yes"/>
      <point x="283" y="1058" type="line" smooth="no"/>
      <point x="175" y="1058" type="line" smooth="no"/>
    </contour>
  </outline>
</glyph>
<glyph name="percent" format="1">
  <advance width="1671"/>
  <unicode hex="0025"/>
  <outline>
    <contour>
      <point x="1103" y="393" type="curve" smooth="yes"/>
      <point x="1103" y="520"/>
      <point x="1129" y="692"/>
      <point x="1291" y="692" type="curve" smooth="yes"/>
      <point x="1453" y="692"/>
      <point x="1479" y="520"/>
      <point x="1479" y="393" type="curve" smooth="yes"/>
      <point x="1479" y="263"/>
      <point x="1457" y="89"/>
      <point x="1291" y="89" type="curve" smooth="yes"/>
      <point x="1125" y="89"/>
      <point x="1103" y="263"/>
    </contour>
    <contour>
      <point x="970" y="372" type="curve" smooth="yes"/>
      <point x="970" y="172"/>
      <point x="1065" y="-21"/>
      <point x="1291" y="-21" type="curve" smooth="yes"/>
      <point x="1518" y="-21"/>
      <point x="1612" y="171"/>
      <point x="1612" y="372" type="curve" smooth="yes"/>
      <point x="1612" y="589"/>
      <point x="1542" y="796"/>
      <point x="1291" y="796" type="curve" smooth="yes"/>
      <point x="1040" y="796"/>
      <point x="970" y="589"/>
    </contour>
    <contour>
      <point x="192" y="1092" type="curve" smooth="yes"/>
      <point x="192" y="1219"/>
      <point x="218" y="1391"/>
      <point x="380" y="1391" type="curve" smooth="yes"/>
      <point x="542" y="1391"/>
      <point x="568" y="1219"/>
      <point x="568" y="1092" type="curve" smooth="yes"/>
      <point x="568" y="962"/>
      <point x="546" y="788"/>
      <point x="380" y="788" type="curve" smooth="yes"/>
      <point x="214" y="788"/>
      <point x="192" y="962"/>
    </contour>
    <contour>
      <point x="59" y="1071" type="curve" smooth="yes"/>
      <point x="59" y="871"/>
      <point x="154" y="678"/>
      <point x="380" y="678" type="curve" smooth="yes"/>
      <point x="607" y="678"/>
      <point x="701" y="870"/>
      <point x="701" y="1071" type="curve" smooth="yes"/>
      <point x="701" y="1288"/>
      <point x="631" y="1495"/>
      <point x="380" y="1495" type="curve" smooth="yes"/>
      <point x="129" y="1495"/>
      <point x="59" y="1288"/>
    </contour>
    <contour>
      <point x="425" y="37" type="line" smooth="no"/>
      <point x="1107" y="1497" type="line" smooth="no"/>
      <point x="1236" y="1430" type="line" smooth="no"/>
      <point x="555" y="-22" type="line" smooth="no"/>
    </contour>
  </outline>
</glyph>
<glyph name="hyphen" format="1">
  <advance width="923"/>
  <unicode hex="002d"/>
  <outline>
    <contour>
      <point x="799" y="508" type="line" smooth="no"/>
      <point x="123" y="508" type="line" smooth="no"/>
      <point x="123" y="665" type="line" smooth="no"/>
      <point x="799" y="665" type="line" smooth="no"/>
    </contour>
  </outline>
</glyph>
<glyph name="one" format="1">
  <advance width="650"/>
  <unicode hex="0031"/>
  <outline>
    <contour>
      <point x="348" y="0" type="line" smooth="no"/>
      <point x="348" y="1057" type="line" smooth="no"/>
      <point x="141" y="957" type="line" smooth="no"/>
      <point x="88" y="1083" type="line" smooth="no"/>
      <point x="345" y="1202" type="line" smooth="no"/>
      <point x="535" y="1202" type="line" smooth="no"/>
      <point x="535" y="0" type="line" smooth="no"/>
    </contour>
  </outline>
</glyph>
<glyph name="four" format="1">
  <advance width="1253"/>
  <unicode hex="0034"/>
  <outline>
    <contour>
      <point x="794" y="1208" type="line" smooth="no"/>
      <point x="956" y="1169" type="line" smooth="no"/>
      <point x="956" y="207" type="line" smooth="no"/>
      <point x="1142" y="207" type="line" smooth="no"/>
      <point x="1142" y="68" type="line" smooth="no"/>
      <point x="956" y="68" type="line" smooth="no"/>
      <point x="956" y="-260" type="line" smooth="no"/>
      <point x="785" y="-260" type="line" smooth="no"/>
      <point x="785" y="68" type="line" smooth="no"/>
      <point x="138" y="68" type="line" smooth="no"/>
      <point x="110" y="205" type="line" smooth="no"/>
    </contour>
    <contour>
      <point x="785" y="930" type="line" smooth="no"/>
      <point x="295" y="205" type="line" smooth="no"/>
      <point x="785" y="205" type="line" smooth="no"/>
    </contour>
  </outline>
</glyph>
<glyph name="colon" format="1">
  <advance width="528"/>
  <unicode hex="003a"/>
  <outline>
    <contour>
      <point x="129" y="281" type="line" smooth="no"/>
      <point x="399" y="281" type="line" smooth="no"/>
      <point x="399" y="0" type="line" smooth="no"/>
      <point x="129" y="0" type="line" smooth="no"/>
    </contour>
    <contour>
      <point x="129" y="864" type="line" smooth="no"/>
      <point x="399" y="864" type="line" smooth="no"/>
      <point x="399" y="583" type="line" smooth="no"/>
      <point x="129" y="583" type="line" smooth="no"/>
    </contour>
  </outline>
</glyph>
<glyph name="equal" format="1">
  <advance width="835"/>
  <unicode hex="003d"/>
  <outline>
    <contour>
      <point x="711" y="508" type="line" smooth="no"/>
      <point x="123" y="508" type="line" smooth="no"/>
      <point x="123" y="639" type="line" smooth="no"/>
      <point x="711" y="639" type="line" smooth="no"/>
    </contour>
    <contour>
      <point x="711" y="280" type="line" smooth="no"/>
      <point x="123" y="280" type="line" smooth="no"/>
      <point x="123" y="411" type="line" smooth="no"/>
      <point x="711" y="411" type="line" smooth="no"/>
    </contour>
  </outline>
</glyph>
<glyph name="greater" format="1">
  <advance width="694"/>
  <unicode hex="003e"/>
  <outline>
    <contour>
      <point x="730" y="663" type="line" smooth="no"/>
      <point x="75" y="1266" type="line" smooth="no"/>
      <point x="-27" y="1156" type="line" smooth="no"/>
      <point x="524" y="663" type="line" smooth="no"/>
      <point x="-27" y="170" type="line" smooth="no"/>
      <point x="75" y="60" type="line" smooth="no"/>
    </contour>
  </outline>
</glyph>
<glyph name="C" format="1">
  <advance width="1328"/>
  <unicode hex="0043"/>
  <outline>
    <contour>
      <point x="794" y="1458" type="curve" smooth="yes"/>
      <point x="390" y="1458"/>
      <point x="315" y="1119"/>
      <point x="315" y="784" type="curve" smooth="yes"/>
      <point x="315" y="446"/>
      <point x="394" y="111"/>
      <point x="794" y="111" type="curve" smooth="yes"/>
      <point x="925" y="111"/>
      <point x="1049" y="171"/>
      <point x="1168" y="218" type="curve" smooth="no"/>
      <point x="1224" y="79" type="line" smooth="no"/>
      <point x="1074" y="18"/>
      <point x="942" y="-41"/>
      <point x="774" y="-41" type="curve" smooth="yes"/>
      <point x="270" y="-41"/>
      <point x="114" y="348"/>
      <point x="114" y="788" type="curve" smooth="yes"/>
      <point x="114" y="1252"/>
      <point x="291" y="1610"/>
      <point x="794" y="1610" type="curve" smooth="yes"/>
      <point x="955" y="1610"/>
      <point x="1046" y="1574"/>
      <point x="1196" y="1530" type="curve" smooth="no"/>
      <point x="1151" y="1385" type="line" smooth="no"/>
      <point x="1031" y="1430"/>
      <point x="924" y="1458"/>
    </contour>
  </outline>
</glyph>
<glyph name="D" format="1">
  <advance width="1469"/>
  <unicode hex="0044"/>
  <outline>
    <contour>
      <point x="698" y="1436" type="curve" smooth="yes"/>
      <point x="317" y="1436" type="line" smooth="no"/>
      <point x="317" y="143" type="line" smooth="no"/>
      <point x="698" y="143" type="line" smooth="yes"/>
      <point x="1091" y="143"/>
      <point x="1156" y="465"/>
      <point x="1156" y="789" type="curve" smooth="yes"/>
      <point x="1156" y="1111"/>
      <point x="1087" y="1436"/>
    </contour>
    <contour>
      <point x="698" y="1579" type="line" smooth="yes"/>
      <point x="1195" y="1579"/>
      <point x="1357" y="1238"/>
      <point x="1357" y="788" type="curve" smooth="yes"/>
      <point x="1357" y="338"/>
      <point x="1194" y="0"/>
      <point x="698" y="0" type="curve" smooth="yes"/>
      <point x="123" y="0" type="line" smooth="no"/>
      <point x="123" y="1579" type="line" smooth="no"/>
    </contour>
  </outline>
</glyph>
<glyph name="E" format="1">
  <advance width="1219"/>
  <unicode hex="0045"/>
  <outline>
    <contour>
      <point x="1106" y="0" type="line" smooth="no"/>
      <point x="123" y="0" type="line" smooth="no"/>
      <point x="123" y="1579" type="line" smooth="no"/>
      <point x="1093" y="1579" type="line" smooth="no"/>
      <point x="1093" y="1436" type="line" smooth="no"/>
      <point x="317" y="1436" type="line" smooth="no"/>
      <point x="317" y="891" type="line" smooth="no"/>
      <point x="995" y="891" type="line" smooth="no"/>
      <point x="995" y="776" type="line" smooth="no"/>
      <point x="317" y="776" type="line" smooth="no"/>
      <point x="317" y="143" type="line" smooth="no"/>
      <point x="1106" y="143" type="line" smooth="no"/>
    </contour>
  </outline>
</glyph>
<glyph name="H" format="1">
  <advance width="1467"/>
  <unicode hex="0048"/>
  <outline>
    <contour>
      <point x="1149" y="0" type="line" smooth="no"/>
      <point x="1149" y="764" type="line" smooth="no"/>
      <point x="317" y="764" type="line" smooth="no"/>
      <point x="317" y="0" type="line" smooth="no"/>
      <point x="123" y="0" type="line" smooth="no"/>
      <point x="123" y="1579" type="line" smooth="no"/>
      <point x="317" y="1579" type="line" smooth="no"/>
      <point x="317" y="879" type="line" smooth="no"/>
      <point x="1149" y="879" type="line" smooth="no"/>
      <point x="1149" y="1579" type="line" smooth="no"/>
      <point x="1343" y="1579" type="line" smooth="no"/>
      <point x="1343" y="0" type="line" smooth="no"/>
    </contour>
  </outline>
</glyph>
<glyph name="J" format="1">
  <advance width="727"/>
  <unicode hex="004a"/>
  <outline>
    <contour>
      <point x="136" y="-90" type="curve" smooth="no"/>
      <point x="89" y="37" type="line" smooth="no"/>
      <point x="397" y="83"/>
      <point x="411" y="203"/>
      <point x="411" y="479" type="curve" smooth="yes"/>
      <point x="411" y="1579" type="line" smooth="no"/>
      <point x="603" y="1579" type="line" smooth="no"/>
      <point x="603" y="514" type="line" smooth="yes"/>
      <point x="603" y="168"/>
      <point x="544" y="-90"/>
    </contour>
  </outline>
</glyph>
<glyph name="K" format="1">
  <advance width="1366"/>
  <unicode hex="004b"/>
  <outline>
    <contour>
      <point x="317" y="747" type="line" smooth="no"/>
      <point x="317" y="0" type="line" smooth="no"/>
      <point x="123" y="0" type="line" smooth="no"/>
      <point x="123" y="1579" type="line" smooth="no"/>
      <point x="317" y="1579" type="line" smooth="no"/>
      <point x="317" y="854" type="line" smooth="no"/>
      <point x="540" y="854" type="line" smooth="no"/>
      <point x="1030" y="1579" type="line" smooth="no"/>
      <point x="1223" y="1579" type="line" smooth="no"/>
      <point x="694" y="798" type="line" smooth="no"/>
      <point x="1290" y="0" type="line" smooth="no"/>
      <point x="1087" y="0" type="line" smooth="no"/>
      <point x="532" y="747" type="line" smooth="no"/>
    </contour>
  </outline>
</glyph>
<glyph name="R" format="1">
  <advance width="1333"/>
  <unicode hex="0052"/>
  <outline>
    <contour>
      <point x="803" y="797" type="curve" smooth="no"/>
      <point x="1053" y="770"/>
      <point x="1214" y="668"/>
      <point x="1214" y="397" type="curve" smooth="yes"/>
      <point x="1214" y="0" type="line" smooth="no"/>
      <point x="1032" y="0" type="line" smooth="no"/>
      <point x="1032" y="120.96"/>
      <point x="1036.38" y="224.335"/>
      <point x="1036.38" y="311.971" type="curve" smooth="yes"/>
      <point x="1036.38" y="619.191"/>
      <point x="982.506" y="733"/>
      <point x="497" y="733" type="curve" smooth="yes"/>
      <point x="317" y="733" type="line" smooth="no"/>
      <point x="317" y="0" type="line" smooth="no"/>
      <point x="123" y="0" type="line" smooth="no"/>
      <point x="123" y="1579" type="line" smooth="no"/>
      <point x="499" y="1579" type="line" smooth="yes"/>
      <point x="813" y="1579"/>
      <point x="1216" y="1579"/>
      <point x="1216" y="1160" type="curve" smooth="yes"/>
      <point x="1216" y="926"/>
      <point x="1021" y="797"/>
    </contour>
    <contour>
      <point x="317" y="862" type="line" smooth="no"/>
      <point x="558" y="862" type="line" smooth="yes"/>
      <point x="758" y="862"/>
      <point x="1046" y="885"/>
      <point x="1046" y="1150" type="curve" smooth="yes"/>
      <point x="1046" y="1416.02"/>
      <point x="822.059" y="1436.7"/>
      <point x="612.082" y="1436.7" type="curve" smooth="yes"/>
      <point x="573.42" y="1436.7"/>
      <point x="535.231" y="1436"/>
      <point x="499" y="1436" type="curve" smooth="yes"/>
      <point x="317" y="1436" type="line" smooth="no"/>
    </contour>
  </outline>
</glyph>
<glyph name="T" format="1">
  <advance width="1341"/>
  <unicode hex="0054"/>
  <outline>
    <contour>
      <point x="1224" y="1436" type="line" smooth="no"/>
      <point x="766" y="1436" type="line" smooth="no"/>
      <point x="766" y="0" type="line" smooth="no"/>
      <point x="576" y="0" type="line" smooth="no"/>
      <point x="576" y="1436" type="line" smooth="no"/>
      <point x="116" y="1436" type="line" smooth="no"/>
      <point x="116" y="1579" type="line" smooth="no"/>
      <point x="1224" y="1579" type="line" smooth="no"/>
    </contour>
  </outline>
</glyph>
<glyph name="U" format="1">
  <advance width="1499"/>
  <unicode hex="0055"/>
  <outline>
    <contour>
      <point x="748" y="-41" type="curve" smooth="yes"/>
      <point x="262" y="-41"/>
      <point x="122" y="278"/>
      <point x="122" y="715" type="curve" smooth="yes"/>
      <point x="122" y="1579" type="line" smooth="no"/>
      <point x="314" y="1579" type="line" smooth="no"/>
      <point x="314" y="711" type="line" smooth="yes"/>
      <point x="314" y="373"/>
      <point x="359" y="100"/>
      <point x="748" y="100" type="curve" smooth="yes"/>
      <point x="1139" y="100"/>
      <point x="1182" y="375"/>
      <point x="1182" y="711" type="curve" smooth="yes"/>
      <point x="1182" y="1579" type="line" smooth="no"/>
      <point x="1378" y="1579" type="line" smooth="no"/>
      <point x="1378" y="715" type="line" smooth="yes"/>
      <point x="1378" y="279"/>
      <point x="1238" y="-41"/>
    </contour>
  </outline>
</glyph>
<glyph name="V" format="1">
  <advance width="1406"/>
  <unicode hex="0056"/>
  <outline>
    <contour>
      <point x="582" y="0" type="line" smooth="no"/>
      <point x="86" y="1579" type="line" smooth="no"/>
      <point x="270" y="1579" type="line" smooth="no"/>
      <point x="704" y="180" type="line" smooth="no"/>
      <point x="1138" y="1579" type="line" smooth="no"/>
      <point x="1320" y="1579" type="line" smooth="no"/>
      <point x="826" y="0" type="line" smooth="no"/>
    </contour>
  </outline>
</glyph>
<glyph name="W" format="1">
  <advance width="2020"/>
  <unicode hex="0057"/>
  <outline>
    <contour>
      <point x="1147" y="1489" type="line" smooth="no"/>
      <point x="1441" y="175" type="line" smooth="no"/>
      <point x="1751" y="1579" type="line" smooth="no"/>
      <point x="1931" y="1579" type="line" smooth="no"/>
      <point x="1575" y="0" type="line" smooth="no"/>
      <point x="1309" y="0" type="line" smooth="no"/>
      <point x="1010" y="1333" type="line" smooth="no"/>
      <point x="711" y="0" type="line" smooth="no"/>
      <point x="444" y="0" type="line" smooth="no"/>
      <point x="88" y="1579" type="line" smooth="no"/>
      <point x="269" y="1579" type="line" smooth="no"/>
      <point x="579" y="175" type="line" smooth="no"/>
      <point x="873" y="1489" type="line" smooth="no"/>
    </contour>
  </outline>
</glyph>
<glyph name="X" format="1">
  <advance width="1404"/>
  <unicode hex="0058"/>
  <outline>
    <contour>
      <point x="314" y="0" type="curve" smooth="no"/>
      <point x="96" y="0" type="line" smooth="no"/>
      <point x="593" y="800" type="line" smooth="no"/>
      <point x="98" y="1579" type="line" smooth="no"/>
      <point x="294" y="1579" type="line" smooth="no"/>
      <point x="702" y="923" type="line" smooth="no"/>
      <point x="1110" y="1579" type="line" smooth="no"/>
      <point x="1306" y="1579" type="line" smooth="no"/>
      <point x="811" y="800" type="line" smooth="no"/>
      <point x="1308" y="0" type="line" smooth="no"/>
      <point x="1090" y="0" type="line" smooth="no"/>
      <point x="702" y="626" type="line" smooth="no"/>
      <point x="572" y="418"/>
      <point x="443" y="209"/>
    </contour>
  </outline>
</glyph>
<glyph name="Y" format="1">
  <advance width="1383"/>
  <unicode hex="0059"/>
  <outline>
    <contour>
      <point x="696" y="677" type="curve" smooth="no"/>
      <point x="1109" y="1579" type="line" smooth="no"/>
      <point x="1300" y="1579" type="line" smooth="no"/>
      <point x="786" y="485" type="line" smooth="no"/>
      <point x="786" y="0" type="line" smooth="no"/>
      <point x="596" y="0" type="line" smooth="no"/>
      <point x="596" y="485" type="line" smooth="no"/>
      <point x="82" y="1579" type="line" smooth="no"/>
      <point x="279" y="1579" type="line" smooth="no"/>
      <point x="413" y="1276"/>
      <point x="552" y="975"/>
    </contour>
  </outline>
</glyph>
<glyph name="Z" format="1">
  <advance width="1270"/>
  <unicode hex="005a"/>
  <outline>
    <contour>
      <point x="1149" y="1579" type="line" smooth="no"/>
      <point x="1149" y="1419" type="line" smooth="no"/>
      <point x="316" y="143" type="line" smooth="no"/>
      <point x="1151" y="143" type="line" smooth="no"/>
      <point x="1151" y="0" type="line" smooth="no"/>
      <point x="119" y="0" type="line" smooth="no"/>
      <point x="119" y="180" type="line" smooth="no"/>
      <point x="948" y="1447" type="line" smooth="no"/>
      <point x="119" y="1447" type="line" smooth="no"/>
      <point x="119" y="1579" type="line" smooth="no"/>
    </contour>
  </outline>
</glyph>
<glyph name="bracketright" format="1">
  <advance width="900"/>
  <unicode hex="005d"/>
  <outline>
    <contour>
      <point x="116" y="1579" type="line" smooth="no"/>
      <point x="780" y="1579" type="line" smooth="no"/>
      <point x="780" y="0" type="line" smooth="no"/>
      <point x="116" y="0" type="line" smooth="no"/>
      <point x="116" y="143" type="line" smooth="no"/>
      <point x="587" y="143" type="line" smooth="no"/>
      <point x="587" y="1436" type="line" smooth="no"/>
      <point x="116" y="1436" type="line" smooth="no"/>
    </contour>
  </outline>
</glyph>
<glyph name="underscore" format="1">
  <advance width="1187"/>
  <unicode hex="005f"/>
  <outline>
    <contour>
      <point x="1063" y="-111" type="line" smooth="no"/>
      <point x="123" y="-111" type="line" smooth="no"/>
      <point x="123" y="33" type="line" smooth="no"/>
      <point x="1063" y="33" type="line" smooth="no"/>
    </contour>
  </outline>
</glyph>
<glyph name="b" format="1">
  <advance width="1252"/>
  <unicode hex="0062"/>
  <outline>
    <contour>
      <point x="664" y="-20" type="curve" smooth="yes"/>
      <point x="517" y="-20"/>
      <point x="386" y="70"/>
      <point x="294" y="178" type="curve" smooth="no"/>
      <point x="266" y="0" type="line" smooth="no"/>
      <point x="126" y="0" type="line" smooth="no"/>
      <point x="126" y="1579" type="line" smooth="no"/>
      <point x="316" y="1614" type="line" smooth="no"/>
      <point x="316" y="1030" type="line" smooth="no"/>
      <point x="401" y="1115"/>
      <point x="543" y="1190"/>
      <point x="664" y="1190" type="curve" smooth="yes"/>
      <point x="1010" y="1190"/>
      <point x="1140" y="881"/>
      <point x="1140" y="580" type="curve" smooth="yes"/>
      <point x="1140" y="277"/>
      <point x="1009" y="-20"/>
    </contour>
    <contour>
      <point x="958" y="584" type="curve" smooth="yes"/>
      <point x="958" y="779"/>
      <point x="921" y="1047"/>
      <point x="671" y="1047" type="curve" smooth="yes"/>
      <point x="555" y="1047"/>
      <point x="400" y="982"/>
      <point x="316" y="902" type="curve" smooth="no"/>
      <point x="316" y="273" type="line" smooth="no"/>
      <point x="413" y="177"/>
      <point x="536" y="117"/>
      <point x="671" y="117" type="curve" smooth="yes"/>
      <point x="918" y="117"/>
      <point x="958" y="390"/>
    </contour>
  </outline>
</glyph>
<glyph name="d" format="1">
  <advance width="1253"/>
  <unicode hex="0064"/>
  <outline>
    <contour>
      <point x="113" y="584" type="curve" smooth="yes"/>
      <point x="113" y="870"/>
      <point x="243" y="1190"/>
      <point x="575" y="1190" type="curve" smooth="yes"/>
      <point x="702" y="1190"/>
      <point x="859" y="1129"/>
      <point x="940" y="1028" type="curve" smooth="no"/>
      <point x="940" y="1614" type="line" smooth="no"/>
      <point x="1130" y="1579" type="line" smooth="no"/>
      <point x="1130" y="0" type="line" smooth="no"/>
      <point x="989" y="0" type="line" smooth="no"/>
      <point x="961" y="179" type="line" smooth="no"/>
      <point x="878" y="71"/>
      <point x="737" y="-20"/>
      <point x="597" y="-20" type="curve" smooth="yes"/>
      <point x="247" y="-20"/>
      <point x="113" y="275"/>
    </contour>
    <contour>
      <point x="295" y="587" type="curve" smooth="yes"/>
      <point x="295" y="381"/>
      <point x="337" y="117"/>
      <point x="593" y="117" type="curve" smooth="yes"/>
      <point x="715" y="117"/>
      <point x="857" y="181"/>
      <point x="940" y="275" type="curve" smooth="no"/>
      <point x="940" y="903" type="line" smooth="no"/>
      <point x="839" y="980"/>
      <point x="717" y="1047"/>
      <point x="587" y="1047" type="curve" smooth="yes"/>
      <point x="337" y="1047"/>
      <point x="295" y="787"/>
    </contour>
  </outline>
</glyph>
<glyph name="e" format="1">
  <advance width="1182"/>
  <unicode hex="0065"/>
  <outline>
    <contour>
      <point x="903" y="717" type="line" smooth="yes"/>
      <point x="903" y="898"/>
      <point x="834" y="1057"/>
      <point x="629" y="1057" type="curve" smooth="yes"/>
      <point x="401" y="1057"/>
      <point x="321" y="882"/>
      <point x="304" y="682" type="curve" smooth="no"/>
      <point x="903" y="682" type="line" smooth="no"/>
    </contour>
    <contour>
      <point x="300" y="563" type="line" smooth="no"/>
      <point x="302" y="326"/>
      <point x="383" y="117"/>
      <point x="649" y="117" type="curve" smooth="yes"/>
      <point x="762" y="117"/>
      <point x="870" y="165"/>
      <point x="955" y="244" type="curve" smooth="no"/>
      <point x="1017" y="99" type="line" smooth="no"/>
      <point x="918" y="30"/>
      <point x="759" y="-20"/>
      <point x="637" y="-20" type="curve" smooth="yes"/>
      <point x="275" y="-20"/>
      <point x="113" y="246"/>
      <point x="113" y="578" type="curve" smooth="yes"/>
      <point x="113" y="897"/>
      <point x="276" y="1190"/>
      <point x="628" y="1190" type="curve" smooth="yes"/>
      <point x="934" y="1190"/>
      <point x="1071" y="957"/>
      <point x="1071" y="676" type="curve" smooth="yes"/>
      <point x="1071" y="638"/>
      <point x="1066" y="600"/>
      <point x="1060" y="563" type="curve" smooth="no"/>
    </contour>
  </outline>
</glyph>
<glyph name="i" format="1">
  <advance width="468"/>
  <unicode hex="0069"/>
  <outline>
    <contour>
      <point x="324" y="0" type="line" smooth="no"/>
      <point x="142" y="0" type="line" smooth="no"/>
      <point x="142" y="1169" type="line" smooth="no"/>
      <point x="324" y="1169" type="line" smooth="no"/>
    </contour>
    <contour>
      <point x="237" y="1577" type="curve" smooth="yes"/>
      <point x="302" y="1577"/>
      <point x="345" y="1524"/>
      <point x="345" y="1462" type="curve" smooth="yes"/>
      <point x="345" y="1400"/>
      <point x="302" y="1347"/>
      <point x="237" y="1347" type="curve" smooth="yes"/>
      <point x="173" y="1347"/>
      <point x="125" y="1399"/>
      <point x="125" y="1462" type="curve" smooth="yes"/>
      <point x="125" y="1524"/>
      <point x="174" y="1577"/>
    </contour>
  </outline>
</glyph>
<glyph name="k" format="1">
  <advance width="1213"/>
  <unicode hex="006b"/>
  <outline>
    <contour>
      <point x="1099" y="1169" type="line" smooth="no"/>
      <point x="546" y="648" type="line" smooth="no"/>
      <point x="1132" y="0" type="line" smooth="no"/>
      <point x="911" y="0" type="line" smooth="no"/>
      <point x="431" y="555" type="line" smooth="no"/>
      <point x="315" y="459" type="line" smooth="no"/>
      <point x="315" y="0" type="line" smooth="no"/>
      <point x="125" y="0" type="line" smooth="no"/>
      <point x="125" y="1579" type="line" smooth="no"/>
      <point x="315" y="1614" type="line" smooth="no"/>
      <point x="315" y="627" type="line" smooth="no"/>
      <point x="874" y="1169" type="line" smooth="no"/>
    </contour>
  </outline>
</glyph>
<glyph name="m" format="1">
  <advance width="1901"/>
  <unicode hex="006d"/>
  <outline>
    <contour>
      <point x="1005" y="967" type="curve" smooth="no"/>
      <point x="1097" y="1101"/>
      <point x="1262" y="1190"/>
      <point x="1425" y="1190" type="curve" smooth="yes"/>
      <point x="1674" y="1190"/>
      <point x="1781" y="992"/>
      <point x="1781" y="766" type="curve" smooth="yes"/>
      <point x="1781" y="0" type="line" smooth="no"/>
      <point x="1591" y="0" type="line" smooth="no"/>
      <point x="1591" y="768" type="line" smooth="yes"/>
      <point x="1591" y="912"/>
      <point x="1568" y="1047"/>
      <point x="1397" y="1047" type="curve" smooth="yes"/>
      <point x="1254" y="1047"/>
      <point x="1130" y="957"/>
      <point x="1035" y="858" type="curve" smooth="no"/>
      <point x="1035" y="0" type="line" smooth="no"/>
      <point x="845" y="0" type="line" smooth="no"/>
      <point x="845" y="768" type="line" smooth="yes"/>
      <point x="845" y="912"/>
      <point x="825" y="1047"/>
      <point x="653" y="1047" type="curve" smooth="yes"/>
      <point x="521" y="1047"/>
      <point x="401" y="948"/>
      <point x="313" y="860" type="curve" smooth="no"/>
      <point x="313" y="0" type="line" smooth="no"/>
      <point x="123" y="0" type="line" smooth="no"/>
      <point x="123" y="1169" type="line" smooth="no"/>
      <point x="264" y="1169" type="line" smooth="no"/>
      <point x="291" y="963" type="line" smooth="no"/>
      <point x="375" y="1097"/>
      <point x="524" y="1190"/>
      <point x="684" y="1190" type="curve" smooth="yes"/>
      <point x="834" y="1190"/>
      <point x="958" y="1112"/>
    </contour>
  </outline>
</glyph>
<glyph name="n" format="1">
  <advance width="1227"/>
  <unicode hex="006e"/>
  <outline>
    <contour>
      <point x="313" y="880" type="curve" smooth="no"/>
      <point x="313" y="0" type="line" smooth="no"/>
      <point x="123" y="0" type="line" smooth="no"/>
      <point x="123" y="1169" type="line" smooth="no"/>
      <point x="263" y="1169" type="line" smooth="no"/>
      <point x="287" y="982" type="line" smooth="no"/>
      <point x="381" y="1101"/>
      <point x="587" y="1188"/>
      <point x="736" y="1188" type="curve" smooth="yes"/>
      <point x="1011" y="1188"/>
      <point x="1107" y="975"/>
      <point x="1107" y="727" type="curve" smooth="yes"/>
      <point x="1107" y="0" type="line" smooth="no"/>
      <point x="917" y="0" type="line" smooth="no"/>
      <point x="917" y="727" type="line" smooth="yes"/>
      <point x="917" y="884"/>
      <point x="884" y="1047"/>
      <point x="693" y="1047" type="curve" smooth="yes"/>
      <point x="582" y="1047"/>
      <point x="395" y="956"/>
    </contour>
  </outline>
</glyph>
<glyph name="o" format="1">
  <advance width="1285"/>
  <unicode hex="006f"/>
  <outline>
    <contour>
      <point x="294" y="582" type="curve" smooth="yes"/>
      <point x="294" y="352"/>
      <point x="372" y="117"/>
      <point x="642" y="117" type="curve" smooth="yes"/>
      <point x="914" y="117"/>
      <point x="990" y="351"/>
      <point x="990" y="582" type="curve" smooth="yes"/>
      <point x="990" y="812"/>
      <point x="913" y="1051"/>
      <point x="642" y="1051" type="curve" smooth="yes"/>
      <point x="371" y="1051"/>
      <point x="294" y="812"/>
    </contour>
    <contour>
      <point x="112" y="582" type="curve" smooth="yes"/>
      <point x="112" y="914"/>
      <point x="283" y="1190"/>
      <point x="642" y="1190" type="curve" smooth="yes"/>
      <point x="1002" y="1190"/>
      <point x="1173" y="915"/>
      <point x="1173" y="582" type="curve" smooth="yes"/>
      <point x="1173" y="248"/>
      <point x="1001" y="-20"/>
      <point x="642" y="-20" type="curve" smooth="yes"/>
      <point x="283" y="-20"/>
      <point x="112" y="249"/>
    </contour>
  </outline>
</glyph>
<glyph name="z" format="1">
  <advance width="1034"/>
  <unicode hex="007a"/>
  <outline>
    <contour>
      <point x="916" y="1169" type="line" smooth="no"/>
      <point x="916" y="1004" type="line" smooth="no"/>
      <point x="290" y="145" type="line" smooth="no"/>
      <point x="916" y="145" type="line" smooth="no"/>
      <point x="916" y="0" type="line" smooth="no"/>
      <point x="114" y="0" type="line" smooth="no"/>
      <point x="114" y="166" type="line" smooth="no"/>
      <point x="752" y="1029" type="line" smooth="no"/>
      <point x="144" y="1029" type="line" smooth="no"/>
      <point x="144" y="1169" type="line" smooth="no"/>
    </contour>
  </outline>
</glyph>
<glyph name="braceleft" format="1">
  <advance width="766"/>
  <unicode hex="007b"/>
  <outline>
    <contour>
      <point x="57" y="571" type="line" smooth="yes"/>
      <point x="57.2946" y="571.001"/>
      <point x="57.5888" y="571.001"/>
      <point x="57.8826" y="571.001" type="curve" smooth="yes"/>
      <point x="517.092" y="571.001"/>
      <point x="38.0396" y="-209.001"/>
      <point x="702.723" y="-209.001" type="curve" smooth="yes"/>
      <point x="703.148" y="-209.001"/>
      <point x="703.574" y="-209.001"/>
      <point x="704" y="-209" type="curve" smooth="yes"/>
      <point x="705" y="-40" type="line" smooth="no"/>
      <point x="703.844" y="-40.0076"/>
      <point x="702.694" y="-40.0114"/>
      <point x="701.549" y="-40.0114" type="curve" smooth="yes"/>
      <point x="251.165" y="-40.0114"/>
      <point x="675.852" y="547.299"/>
      <point x="224" y="665" type="curve" smooth="no"/>
      <point x="675.852" y="782.701"/>
      <point x="251.165" y="1370.01"/>
      <point x="701.549" y="1370.01" type="curve" smooth="yes"/>
      <point x="702.694" y="1370.01"/>
      <point x="703.844" y="1370.01"/>
      <point x="705" y="1370" type="curve" smooth="no"/>
      <point x="704" y="1539" type="line" smooth="no"/>
      <point x="702.723" y="1539" type="line" smooth="yes"/>
      <point x="38.0396" y="1539"/>
      <point x="517.092" y="758.999"/>
      <point x="57.8826" y="758.999" type="curve" smooth="yes"/>
      <point x="57.5888" y="758.999"/>
      <point x="57.2946" y="758.999"/>
      <point x="57" y="759" type="curve" smooth="yes"/>
    </contour>
  </outline>
</glyph>
<glyph name="bar" format="1">
  <advance width="436"/>
  <unicode hex="007c"/>
  <outline>
    <contour>
      <point x="129" y="-111" type="line" smooth="no"/>
      <point x="129" y="1696" type="line" smooth="no"/>
      <point x="307" y="1696" type="line" smooth="no"/>
      <point x="307" y="-111" type="line" smooth="no"/>
    </contour>
  </outline>
</glyph>
<glyph name="braceright" format="1">
  <advance width="766"/>
  <unicode hex="007d"/>
  <outline>
    <contour>
      <point x="710" y="571" type="line" smooth="yes"/>
      <point x="709.706" y="571.001"/>
      <point x="709.413" y="571.001"/>
      <point x="709.119" y="571.001" type="curve" smooth="yes"/>
      <point x="250.905" y="571.001"/>
      <point x="727.964" y="-209.001"/>
      <point x="64.2753" y="-209.001" type="curve" smooth="yes"/>
      <point x="63.8507" y="-209.001"/>
      <point x="63.4256" y="-209.001"/>
      <point x="63" y="-209" type="curve" smooth="yes"/>
      <point x="62" y="-40" type="line" smooth="no"/>
      <point x="63.1561" y="-40.0076"/>
      <point x="64.3065" y="-40.0114"/>
      <point x="65.4512" y="-40.0114" type="curve" smooth="yes"/>
      <point x="515.835" y="-40.0114"/>
      <point x="91.1485" y="547.299"/>
      <point x="543" y="665" type="curve" smooth="no"/>
      <point x="92.1459" y="782.701"/>
      <point x="514.846" y="1370.01"/>
      <point x="65.4437" y="1370.01" type="curve" smooth="yes"/>
      <point x="64.3014" y="1370.01"/>
      <point x="63.1536" y="1370.01"/>
      <point x="62" y="1370" type="curve" smooth="no"/>
      <point x="63" y="1539" type="line" smooth="no"/>
      <point x="64.2753" y="1539" type="line" smooth="yes"/>
      <point x="727.964" y="1539"/>
      <point x="250.905" y="758.999"/>
      <point x="709.119" y="758.999" type="curve" smooth="yes"/>
      <point x="709.413" y="758.999"/>
      <point x="709.706" y="758.999"/>
      <point x="710" y="759" type="curve" smooth="yes"/>
    </contour>
  </outline>
</glyph>
<glyph name="brokenbar" format="1">
  <advance width="430"/>
  <unicode hex="00a6"/>
  <outline>
    <contour>
      <point x="122" y="889" type="line" smooth="no"/>
      <point x="122" y="1579" type="line" smooth="no"/>
      <point x="310" y="1579" type="line" smooth="no"/>
      <point x="310" y="889" type="line" smooth="no"/>
    </contour>
    <contour>
      <point x="122" y="0" type="line" smooth="no"/>
      <point x="122" y="690" type="line" smooth="no"/>
      <point x="310" y="690" type="line" smooth="no"/>
      <point x="310" y="0" type="line" smooth="no"/>
    </contour>
  </outline>
</glyph>
<glyph name="copyright" format="1">
  <advance width="1817"/>
  <unicode hex="00a9"/>
  <outline>
    <contour>
      <point x="947" y="336" type="curve" smooth="yes"/>
      <point x="1045" y="336"/>
      <point x="1141" y="370"/>
      <point x="1227" y="414" type="curve" smooth="no"/>
      <point x="1227" y="540" type="line" smooth="no"/>
      <point x="1136" y="494"/>
      <point x="1036" y="464"/>
      <point x="933" y="464" type="curve" smooth="yes"/>
      <point x="673" y="464"/>
      <point x="587" y="575"/>
      <point x="587" y="831" type="curve" smooth="yes"/>
      <point x="587" y="1087"/>
      <point x="673" y="1198"/>
      <point x="933" y="1198" type="curve" smooth="yes"/>
      <point x="1036" y="1198"/>
      <point x="1136" y="1168"/>
      <point x="1227" y="1122" type="curve" smooth="no"/>
      <point x="1227" y="1248" type="line" smooth="no"/>
      <point x="1141" y="1292"/>
      <point x="1045" y="1326"/>
      <point x="947" y="1326" type="curve" smooth="yes"/>
      <point x="614" y="1326"/>
      <point x="425" y="1168"/>
      <point x="425" y="831" type="curve" smooth="yes"/>
      <point x="425" y="494"/>
      <point x="614" y="336"/>
    </contour>
    <contour>
      <point x="35" y="830" type="curve" smooth="yes"/>
      <point x="35" y="342"/>
      <point x="429" y="-23"/>
      <point x="910" y="-23" type="curve" smooth="yes"/>
      <point x="1389" y="-23"/>
      <point x="1785" y="344"/>
      <point x="1785" y="830" type="curve" smooth="yes"/>
      <point x="1785" y="1308"/>
      <point x="1383" y="1687"/>
      <point x="910" y="1687" type="curve" smooth="yes"/>
      <point x="437" y="1687"/>
      <point x="35" y="1308"/>
    </contour>
    <contour>
      <point x="183" y="829" type="curve" smooth="yes"/>
      <point x="183" y="1230"/>
      <point x="507" y="1562"/>
      <point x="910" y="1562" type="curve" smooth="yes"/>
      <point x="1312" y="1562"/>
      <point x="1637" y="1229"/>
      <point x="1637" y="829" type="curve" smooth="yes"/>
      <point x="1637" y="410"/>
      <point x="1329" y="101"/>
      <point x="910" y="101" type="curve" smooth="yes"/>
      <point x="491" y="101"/>
      <point x="183" y="410"/>
    </contour>
  </outline>
</glyph>
<glyph name="uni00AD" format="1">
  <advance width="591"/>
  <unicode hex="00ad"/>
  <outline>
    <contour>
      <point x="536" y="508" type="line" smooth="no"/>
      <point x="68" y="508" type="line" smooth="no"/>
      <point x="68" y="639" type="line" smooth="no"/>
      <point x="536" y="639" type="line" smooth="no"/>
    </contour>
  </outline>
</glyph>
<glyph name="acute" format="1">
  <advance width="430"/>
  <unicode hex="00b4"/>
  <outline>
    <contour>
      <point x="96" y="328" type="line" smooth="no"/>
      <point x="39" y="354" type="line" smooth="no"/>
      <point x="198" y="965" type="line" smooth="no"/>
      <point x="430" y="874" type="line" smooth="no"/>
    </contour>
  </outline>
</glyph>
<glyph name="uni00B5" format="1">
  <advance width="1320"/>
  <unicode hex="00b5"/>
  <outline>
    <contour>
      <point x="611" y="123" type="curve" smooth="yes"/>
      <point x="760" y="123"/>
      <point x="892" y="194"/>
      <point x="958" y="274" type="curve" smooth="no"/>
      <point x="958" y="1169" type="line" smooth="no"/>
      <point x="1166" y="1169" type="line" smooth="no"/>
      <point x="1166" y="16" type="line" smooth="no"/>
      <point x="1020" y="16" type="line" smooth="no"/>
      <point x="996" y="170" type="line" smooth="no"/>
      <point x="882" y="43"/>
      <point x="750" y="-20"/>
      <point x="599" y="-20" type="curve" smooth="yes"/>
      <point x="481" y="-20"/>
      <point x="410" y="47"/>
      <point x="359" y="113" type="curve" smooth="no"/>
      <point x="359" y="-291" type="line" smooth="no"/>
      <point x="185" y="-291" type="line" smooth="no"/>
      <point x="185" y="1169" type="line" smooth="no"/>
      <point x="359" y="1169" type="line" smooth="no"/>
      <point x="359" y="442" type="line" smooth="yes"/>
      <point x="359" y="229"/>
      <point x="443" y="123"/>
    </contour>
  </outline>
</glyph>
<glyph name="paragraph" format="1">
  <advance width="1086"/>
  <unicode hex="00b6"/>
  <outline>
    <contour>
      <point x="501" y="1578" type="line" smooth="yes"/>
      <point x="268" y="1578"/>
      <point x="-33" y="1551"/>
      <point x="-33" y="1250" type="curve" smooth="yes"/>
      <point x="-33" y="971"/>
      <point x="226" y="905"/>
      <point x="456" y="905" type="curve" smooth="no"/>
      <point x="456" y="0" type="line" smooth="no"/>
      <point x="646" y="0" type="line" smooth="no"/>
      <point x="646" y="1428" type="line" smooth="no"/>
      <point x="781" y="1428" type="line" smooth="no"/>
      <point x="781" y="0" type="line" smooth="no"/>
      <point x="967" y="0" type="line" smooth="no"/>
      <point x="967" y="1578" type="line" smooth="no"/>
    </contour>
  </outline>
</glyph>
<glyph name="periodcentered" format="1">
  <advance width="329"/>
  <unicode hex="00b7"/>
  <outline>
    <contour>
      <point x="173" y="765" type="curve" smooth="yes"/>
      <point x="238" y="765"/>
      <point x="281" y="712"/>
      <point x="281" y="650" type="curve" smooth="yes"/>
      <point x="281" y="588"/>
      <point x="238" y="535"/>
      <point x="173" y="535" type="curve" smooth="yes"/>
      <point x="109" y="535"/>
      <point x="61" y="587"/>
      <point x="61" y="650" type="curve" smooth="yes"/>
      <point x="61" y="712"/>
      <point x="110" y="765"/>
    </contour>
  </outline>
</glyph>
<glyph name="ordmasculine" format="1">
  <advance width="956"/>
  <unicode hex="00ba"/>
  <outline>
    <contour>
      <point x="141" y="575" type="line" smooth="no"/>
      <point x="825" y="575" type="line" smooth="no"/>
      <point x="825" y="446" type="line" smooth="no"/>
      <point x="141" y="446" type="line" smooth="no"/>
    </contour>
    <contour>
      <point x="212" y="1154" type="curve" smooth="yes"/>
      <point x="212" y="977"/>
      <point x="271" y="797"/>
      <point x="479" y="797" type="curve" smooth="yes"/>
      <point x="688" y="797"/>
      <point x="746" y="976"/>
      <point x="746" y="1154" type="curve" smooth="yes"/>
      <point x="746" y="1330"/>
      <point x="686" y="1512"/>
      <point x="479" y="1512" type="curve" smooth="yes"/>
      <point x="271" y="1512"/>
      <point x="212" y="1331"/>
    </contour>
    <contour>
      <point x="55" y="1152" type="curve" smooth="yes"/>
      <point x="55" y="1417"/>
      <point x="193" y="1638"/>
      <point x="479" y="1638" type="curve" smooth="yes"/>
      <point x="766" y="1638"/>
      <point x="904" y="1417"/>
      <point x="904" y="1152" type="curve" smooth="yes"/>
      <point x="904" y="885"/>
      <point x="767" y="670"/>
      <point x="479" y="670" type="curve" smooth="yes"/>
      <point x="192" y="670"/>
      <point x="55" y="886"/>
    </contour>
  </outline>
</glyph>
<glyph name="AE" format="1">
  <advance width="1805"/>
  <unicode hex="00c6"/>
  <outline>
    <contour>
      <point x="1769" y="0" type="line" smooth="no"/>
      <point x="930" y="0" type="line" smooth="no"/>
      <point x="930" y="371" type="line" smooth="no"/>
      <point x="378" y="371" type="line" smooth="no"/>
      <point x="186" y="0" type="line" smooth="no"/>
      <point x="-23" y="0" type="line" smooth="no"/>
      <point x="803" y="1579" type="line" smooth="no"/>
      <point x="1741" y="1579" type="line" smooth="no"/>
      <point x="1741" y="1436" type="line" smooth="no"/>
      <point x="1093" y="1436" type="line" smooth="no"/>
      <point x="1093" y="891" type="line" smooth="no"/>
      <point x="1698" y="891" type="line" smooth="no"/>
      <point x="1698" y="764" type="line" smooth="no"/>
      <point x="1095" y="764" type="line" smooth="no"/>
      <point x="1095" y="143" type="line" smooth="no"/>
      <point x="1769" y="143" type="line" smooth="no"/>
    </contour>
    <contour>
      <point x="928" y="1459" type="line" smooth="no"/>
      <point x="438" y="493" type="line" smooth="no"/>
      <point x="928" y="493" type="line" smooth="no"/>
    </contour>
  </outline>
</glyph>
<glyph name="Thorn" format="1">
  <advance width="1254"/>
  <unicode hex="00de"/>
  <outline>
    <contour>
      <point x="1212" y="973" type="curve" smooth="yes"/>
      <point x="1212" y="523.067"/>
      <point x="762.067" y="503.832"/>
      <point x="412.093" y="503.832" type="curve" smooth="yes"/>
      <point x="379.372" y="503.832"/>
      <point x="347.524" y="504"/>
      <point x="317" y="504" type="curve" smooth="no"/>
      <point x="317" y="0" type="line" smooth="no"/>
      <point x="123" y="0" type="line" smooth="no"/>
      <point x="123" y="1579" type="line" smooth="no"/>
      <point x="317" y="1579" type="line" smooth="no"/>
      <point x="317" y="1444" type="line" smooth="no"/>
      <point x="375.827" y="1444"/>
      <point x="437.697" y="1445.11"/>
      <point x="500.288" y="1445.11" type="curve" smooth="yes"/>
      <point x="845.202" y="1445.11"/>
      <point x="1212" y="1411.44"/>
    </contour>
    <contour>
      <point x="479" y="649" type="line" smooth="yes"/>
      <point x="713" y="649"/>
      <point x="1030" y="655"/>
      <point x="1030" y="959" type="curve" smooth="yes"/>
      <point x="1030" y="1289"/>
      <point x="807" y="1300"/>
      <point x="526" y="1300" type="curve" smooth="yes"/>
      <point x="317" y="1300" type="line" smooth="no"/>
      <point x="317" y="649" type="line" smooth="no"/>
    </contour>
  </outline>
</glyph>
<glyph name="divide" format="1">
  <advance width="724"/>
  <unicode hex="00f7"/>
  <outline>
    <contour>
      <point x="691" y="508" type="line" smooth="no"/>
      <point x="9" y="508" type="line" smooth="no"/>
      <point x="9" y="639" type="line" smooth="no"/>
      <point x="691" y="639" type="line" smooth="no"/>
    </contour>
    <contour>
      <point x="348" y="930" type="curve" smooth="yes"/>
      <point x="413" y="930"/>
      <point x="456" y="877"/>
      <point x="456" y="815" type="curve" smooth="yes"/>
      <point x="456" y="753"/>
      <point x="413" y="700"/>
      <point x="348" y="700" type="curve" smooth="yes"/>
      <point x="284" y="700"/>
      <point x="236" y="752"/>
      <point x="236" y="815" type="curve" smooth="yes"/>
      <point x="236" y="877"/>
      <point x="285" y="930"/>
    </contour>
    <contour>
      <point x="346" y="445" type="curve" smooth="yes"/>
      <point x="411" y="445"/>
      <point x="454" y="392"/>
      <point x="454" y="330" type="curve" smooth="yes"/>
      <point x="454" y="268"/>
      <point x="411" y="215"/>
      <point x="346" y="215" type="curve" smooth="yes"/>
      <point x="282" y="215"/>
      <point x="234" y="267"/>
      <point x="234" y="330" type="curve" smooth="yes"/>
      <point x="234" y="392"/>
      <point x="283" y="445"/>
    </contour>
  </outline>
</glyph>
<glyph name="circumflex" format="1">
  <advance width="1428"/>
  <unicode hex="02c6"/>
  <outline>
    <contour>
      <point x="714" y="809" type="line" smooth="no"/>
      <point x="502" y="432" type="line" smooth="no"/>
      <point x="374" y="510" type="line" smooth="no"/>
      <point x="666" y="1011" type="line" smooth="no"/>
      <point x="762" y="1011" type="line" smooth="no"/>
      <point x="1054" y="510" type="line" smooth="no"/>
      <point x="926" y="432" type="line" smooth="no"/>
    </contour>
  </outline>
</glyph>
<glyph name="acutecomb" format="1">
  <advance width="1097"/>
  <unicode hex="0301"/>
  <outline>
    <contour>
      <point x="546" y="1639" type="line" smooth="no"/>
      <point x="489" y="1665" type="line" smooth="no"/>
      <point x="648" y="2276" type="line" smooth="no"/>
      <point x="880" y="2185" type="line" smooth="no"/>
    </contour>
  </outline>
</glyph>
<glyph name="uni0306" format="1">
  <advance width="780"/>
  <unicode hex="0306"/>
  <outline>
    <contour>
      <point x="385" y="1509" type="curve" smooth="yes"/>
      <point x="470" y="1509"/>
      <point x="526" y="1555"/>
      <point x="526" y="1638" type="curve" smooth="no"/>
      <point x="643" y="1638" type="line" smooth="no"/>
      <point x="643" y="1478"/>
      <point x="553" y="1399"/>
      <point x="385" y="1399" type="curve" smooth="yes"/>
      <point x="221" y="1399"/>
      <point x="123" y="1476"/>
      <point x="123" y="1638" type="curve" smooth="no"/>
      <point x="240" y="1638" type="line" smooth="no"/>
      <point x="240" y="1555"/>
      <point x="301" y="1509"/>
    </contour>
  </outline>
</glyph>
<glyph name="uni0E81" format="1">
  <advance width="1395"/>
  <unicode hex="0e81"/>
  <outline>
    <contour>
      <point x="514" y="952" type="curve" smooth="no"/>
      <point x="615" y="1019"/>
      <point x="721" y="1104"/>
      <point x="884" y="1104" type="curve" smooth="yes"/>
      <point x="1185" y="1104"/>
      <point x="1280" y="958"/>
      <point x="1280" y="658" type="curve" smooth="yes"/>
      <point x="1280" y="0" type="line" smooth="no"/>
      <point x="1121" y="0" type="line" smooth="no"/>
      <point x="1121" y="711" type="line" smooth="yes"/>
      <point x="1121" y="910"/>
      <point x="1079" y="1006"/>
      <point x="879" y="1006" type="curve" smooth="yes"/>
      <point x="737" y="1006"/>
      <point x="622" y="914"/>
      <point x="535" y="848" type="curve" smooth="no"/>
      <point x="535" y="334" type="line" smooth="yes"/>
      <point x="535" y="147"/>
      <point x="476" y="0"/>
      <point x="287" y="0" type="curve" smooth="yes"/>
      <point x="157" y="0"/>
      <point x="71" y="51"/>
      <point x="71" y="182" type="curve" smooth="yes"/>
      <point x="71" y="295"/>
      <point x="156" y="364"/>
      <point x="267" y="367" type="curve" smooth="yes"/>
      <point x="302" y="367"/>
      <point x="340" y="356"/>
      <point x="377" y="352" type="curve" smooth="no"/>
      <point x="377" y="766" type="line" smooth="no"/>
      <point x="350" y="757"/>
      <point x="320" y="748"/>
      <point x="284" y="748" type="curve" smooth="yes"/>
      <point x="158" y="748"/>
      <point x="70" y="800"/>
      <point x="70" y="927" type="curve" smooth="yes"/>
      <point x="70" y="1046"/>
      <point x="162" y="1104"/>
      <point x="281" y="1104" type="curve" smooth="yes"/>
      <point x="407" y="1104"/>
      <point x="480" y="1047"/>
    </contour>
    <contour>
      <point x="377" y="867" type="curve" smooth="no"/>
      <point x="377" y="938"/>
      <point x="360" y="1009"/>
      <point x="288" y="1009" type="curve" smooth="yes"/>
      <point x="233" y="1009"/>
      <point x="193" y="986"/>
      <point x="193" y="931" type="curve" smooth="yes"/>
      <point x="193" y="873"/>
      <point x="224" y="841"/>
      <point x="281" y="841" type="curve" smooth="yes"/>
      <point x="319" y="841"/>
      <point x="348" y="853"/>
    </contour>
    <contour>
      <point x="194" y="182" type="curve" smooth="yes"/>
      <point x="194" y="128"/>
      <point x="227" y="94"/>
      <point x="281" y="94" type="curve" smooth="yes"/>
      <point x="366" y="94"/>
      <point x="377" y="169"/>
      <point x="377" y="253" type="curve" smooth="yes"/>
      <point x="377" y="283" type="line" smooth="no"/>
      <point x="304" y="283" type="line" smooth="yes"/>
      <point x="231" y="283"/>
      <point x="194" y="249"/>
    </contour>
  </outline>
</glyph>
<glyph name="uni0E88" format="1">
  <advance width="1264"/>
  <unicode hex="0e88"/>
  <outline>
    <contour>
      <point x="30" y="722" type="line" smooth="yes"/>
      <point x="30" y="1007"/>
      <point x="329" y="1104"/>
      <point x="614" y="1104" type="curve" smooth="yes"/>
      <point x="983" y="1104"/>
      <point x="1162" y="992"/>
      <point x="1162" y="626" type="curve" smooth="yes"/>
      <point x="1162" y="2" type="line" smooth="no"/>
      <point x="1017" y="-65" type="line" smooth="no"/>
      <point x="974" y="-46" type="line" smooth="no"/>
      <point x="802" y="42"/>
      <point x="686" y="217"/>
      <point x="657" y="450" type="curve" smooth="no"/>
      <point x="615" y="443" type="line" smooth="yes"/>
      <point x="598" y="441"/>
      <point x="579" y="438"/>
      <point x="561" y="438" type="curve" smooth="yes"/>
      <point x="428" y="438"/>
      <point x="343" y="490"/>
      <point x="343" y="620" type="curve" smooth="yes"/>
      <point x="343" y="747"/>
      <point x="438" y="812"/>
      <point x="567" y="812" type="curve" smooth="yes"/>
      <point x="724" y="812"/>
      <point x="798" y="717"/>
      <point x="798" y="554" type="curve" smooth="yes"/>
      <point x="798" y="345"/>
      <point x="871" y="145"/>
      <point x="1005" y="64" type="curve" smooth="no"/>
      <point x="1005" y="631" type="line" smooth="yes"/>
      <point x="1005" y="910"/>
      <point x="909" y="1005"/>
      <point x="630" y="1005" type="curve" smooth="yes"/>
      <point x="370" y="1005"/>
      <point x="176" y="930"/>
      <point x="171" y="698" type="curve" smooth="no"/>
      <point x="171" y="678" type="line" smooth="no"/>
      <point x="31" y="678" type="line" smooth="no"/>
      <point x="30" y="692"/>
      <point x="30" y="702"/>
      <point x="30" y="708" type="curve" smooth="yes"/>
    </contour>
    <contour>
      <point x="559" y="724" type="curve" smooth="yes"/>
      <point x="497" y="724"/>
      <point x="466" y="686"/>
      <point x="466" y="622" type="curve" smooth="yes"/>
      <point x="466" y="542"/>
      <point x="515" y="521"/>
      <point x="599" y="521" type="curve" smooth="yes"/>
      <point x="650" y="521" type="line" smooth="no"/>
      <point x="649" y="525"/>
      <point x="649" y="531"/>
      <point x="649" y="538" type="curve" smooth="yes"/>
      <point x="649" y="565" type="line" smooth="yes"/>
      <point x="649" y="657"/>
      <point x="636" y="724"/>
    </contour>
  </outline>
</glyph>
<glyph name="uni0E8A" format="1">
  <advance width="1219"/>
  <unicode hex="0e8a"/>
  <outline>
    <contour>
      <point x="537" y="753" type="curve" smooth="yes"/>
      <point x="537" y="628"/>
      <point x="441" y="560"/>
      <point x="314" y="560" type="curve" smooth="yes"/>
      <point x="165" y="560"/>
      <point x="94" y="647"/>
      <point x="94" y="797" type="curve" smooth="yes"/>
      <point x="94" y="1030"/>
      <point x="350" y="1104"/>
      <point x="591" y="1104" type="curve" smooth="yes"/>
      <point x="845" y="1104"/>
      <point x="1118" y="1043"/>
      <point x="1118" y="799" type="curve" smooth="yes"/>
      <point x="1118" y="613"/>
      <point x="957" y="567"/>
      <point x="814" y="512" type="curve" smooth="yes"/>
      <point x="523" y="402" type="line" smooth="yes"/>
      <point x="354" y="338"/>
      <point x="228" y="339"/>
      <point x="228" y="213" type="curve" smooth="yes"/>
      <point x="228" y="153"/>
      <point x="256" y="127"/>
      <point x="311" y="122" type="curve" smooth="no"/>
      <point x="519" y="130"/>
      <point x="693" y="332"/>
      <point x="902" y="332" type="curve" smooth="yes"/>
      <point x="1060" y="332"/>
      <point x="1075" y="231"/>
      <point x="1092" y="86" type="curve" smooth="yes"/>
      <point x="1126" y="-198" type="line" smooth="no"/>
      <point x="992" y="-198" type="line" smooth="no"/>
      <point x="961" y="86" type="line" smooth="yes"/>
      <point x="954" y="146"/>
      <point x="957" y="221"/>
      <point x="892" y="221" type="curve" smooth="yes"/>
      <point x="692" y="221"/>
      <point x="513" y="0"/>
      <point x="298" y="0" type="curve" smooth="yes"/>
      <point x="175" y="0"/>
      <point x="83" y="81"/>
      <point x="83" y="204" type="curve" smooth="yes"/>
      <point x="83" y="378"/>
      <point x="273" y="430"/>
      <point x="402" y="476" type="curve" smooth="no"/>
      <point x="585" y="543" type="line" smooth="yes"/>
      <point x="720" y="592"/>
      <point x="982" y="644"/>
      <point x="982" y="799" type="curve" smooth="yes"/>
      <point x="982" y="958"/>
      <point x="792" y="1007"/>
      <point x="608" y="1007" type="curve" smooth="yes"/>
      <point x="470" y="1007"/>
      <point x="360" y="989"/>
      <point x="285" y="933" type="curve" smooth="no"/>
      <point x="305" y="935"/>
      <point x="322" y="938"/>
      <point x="339" y="938" type="curve" smooth="yes"/>
      <point x="458" y="935"/>
      <point x="537" y="874"/>
    </contour>
    <contour>
      <point x="323" y="655" type="curve" smooth="yes"/>
      <point x="393" y="655"/>
      <point x="410" y="692"/>
      <point x="413" y="759" type="curve" smooth="no"/>
      <point x="413" y="820"/>
      <point x="369" y="851"/>
      <point x="282" y="851" type="curve" smooth="yes"/>
      <point x="223" y="851" type="line" smooth="no"/>
      <point x="217" y="832"/>
      <point x="214" y="812"/>
      <point x="214" y="792" type="curve" smooth="yes"/>
      <point x="214" y="706"/>
      <point x="238" y="655"/>
    </contour>
  </outline>
</glyph>
<glyph name="uni0E8D" format="1">
  <advance width="1172"/>
  <unicode hex="0e8d"/>
  <outline>
    <contour>
      <point x="541" y="920" type="curve" smooth="yes"/>
      <point x="541" y="801"/>
      <point x="467" y="741"/>
      <point x="347" y="737" type="curve" smooth="yes"/>
      <point x="329" y="737"/>
      <point x="310" y="740"/>
      <point x="290" y="742" type="curve" smooth="no"/>
      <point x="236" y="752" type="line" smooth="no"/>
      <point x="236" y="732" type="line" smooth="yes"/>
      <point x="236" y="630"/>
      <point x="303" y="558"/>
      <point x="406" y="558" type="curve" smooth="yes"/>
      <point x="540" y="558" type="line" smooth="no"/>
      <point x="540" y="445" type="line" smooth="no"/>
      <point x="406" y="445" type="line" smooth="yes"/>
      <point x="307" y="445"/>
      <point x="235" y="377"/>
      <point x="235" y="278" type="curve" smooth="yes"/>
      <point x="235" y="137"/>
      <point x="388" y="97"/>
      <point x="552" y="97" type="curve" smooth="yes"/>
      <point x="811" y="97"/>
      <point x="922" y="172"/>
      <point x="922" y="431" type="curve" smooth="yes"/>
      <point x="922" y="1104" type="line" smooth="no"/>
      <point x="1081" y="1104" type="line" smooth="no"/>
      <point x="1081" y="446" type="line" smooth="yes"/>
      <point x="1081" y="109"/>
      <point x="910" y="0"/>
      <point x="572" y="0" type="curve" smooth="yes"/>
      <point x="320" y="0"/>
      <point x="82" y="58"/>
      <point x="82" y="280" type="curve" smooth="yes"/>
      <point x="82" y="417"/>
      <point x="202" y="501"/>
      <point x="342" y="501" type="curve" smooth="no"/>
      <point x="176" y="519"/>
      <point x="82" y="617"/>
      <point x="82" y="800" type="curve" smooth="yes"/>
      <point x="82" y="973"/>
      <point x="160" y="1104"/>
      <point x="331" y="1104" type="curve" smooth="yes"/>
      <point x="457" y="1104"/>
      <point x="541" y="1044"/>
    </contour>
    <contour>
      <point x="299" y="821" type="line" smooth="yes"/>
      <point x="379" y="821"/>
      <point x="415" y="842"/>
      <point x="418" y="913" type="curve" smooth="no"/>
      <point x="415" y="976"/>
      <point x="388" y="1007"/>
      <point x="337" y="1008" type="curve" smooth="no"/>
      <point x="266" y="1008"/>
      <point x="236" y="948"/>
      <point x="236" y="870" type="curve" smooth="yes"/>
      <point x="236" y="821" type="line" smooth="no"/>
    </contour>
  </outline>
</glyph>
<glyph name="uni0E95" format="1">
  <advance width="1433"/>
  <unicode hex="0e95"/>
  <outline>
    <contour>
      <point x="718" y="884" type="curve" smooth="no"/>
      <point x="740" y="1034"/>
      <point x="821" y="1104"/>
      <point x="989" y="1104" type="curve" smooth="yes"/>
      <point x="1260" y="1104"/>
      <point x="1340" y="928"/>
      <point x="1340" y="654" type="curve" smooth="yes"/>
      <point x="1340" y="0" type="line" smooth="no"/>
      <point x="1182" y="0" type="line" smooth="no"/>
      <point x="1182" y="662" type="line" smooth="yes"/>
      <point x="1182" y="832"/>
      <point x="1167" y="1004"/>
      <point x="997" y="1004" type="curve" smooth="yes"/>
      <point x="804" y="1004"/>
      <point x="798" y="836"/>
      <point x="798" y="636" type="curve" smooth="yes"/>
      <point x="798" y="512" type="line" smooth="no"/>
      <point x="639" y="512" type="line" smooth="no"/>
      <point x="639" y="636" type="line" smooth="yes"/>
      <point x="639" y="819"/>
      <point x="636" y="1005"/>
      <point x="462" y="1005" type="curve" smooth="yes"/>
      <point x="276" y="1005"/>
      <point x="253" y="880"/>
      <point x="253" y="690" type="curve" smooth="yes"/>
      <point x="253" y="354" type="line" smooth="no"/>
      <point x="291" y="362" type="line" smooth="no"/>
      <point x="311" y="364"/>
      <point x="327" y="366"/>
      <point x="345" y="366" type="curve" smooth="yes"/>
      <point x="469" y="366"/>
      <point x="559" y="313"/>
      <point x="559" y="191" type="curve" smooth="yes"/>
      <point x="559" y="52"/>
      <point x="477" y="0"/>
      <point x="334" y="0" type="curve" smooth="yes"/>
      <point x="165" y="0"/>
      <point x="95" y="127"/>
      <point x="95" y="307" type="curve" smooth="yes"/>
      <point x="95" y="658" type="line" smooth="yes"/>
      <point x="95" y="938"/>
      <point x="178" y="1104"/>
      <point x="455" y="1104" type="curve" smooth="yes"/>
      <point x="617" y="1104"/>
      <point x="697" y="1027"/>
    </contour>
    <contour>
      <point x="436" y="191" type="curve" smooth="no"/>
      <point x="436" y="263"/>
      <point x="384" y="283"/>
      <point x="307" y="283" type="curve" smooth="yes"/>
      <point x="253" y="283" type="line" smooth="no"/>
      <point x="253" y="228" type="line" smooth="yes"/>
      <point x="253" y="139"/>
      <point x="286" y="94"/>
      <point x="353" y="94" type="curve" smooth="yes"/>
      <point x="407" y="94"/>
      <point x="435" y="126"/>
    </contour>
  </outline>
</glyph>
<glyph name="uni0E9D" format="1">
  <advance width="1431"/>
  <unicode hex="0e9d"/>
  <outline>
    <contour>
      <point x="251" y="405" type="line" smooth="yes"/>
      <point x="251" y="228"/>
      <point x="277" y="101"/>
      <point x="447" y="98" type="curve" smooth="no"/>
      <point x="603" y="98"/>
      <point x="637" y="232"/>
      <point x="637" y="405" type="curve" smooth="yes"/>
      <point x="637" y="475" type="line" smooth="no"/>
      <point x="794" y="475" type="line" smooth="no"/>
      <point x="794" y="405" type="line" smooth="yes"/>
      <point x="794" y="244"/>
      <point x="835" y="98"/>
      <point x="980" y="98" type="curve" smooth="yes"/>
      <point x="1154" y="98"/>
      <point x="1180" y="227"/>
      <point x="1180" y="405" type="curve" smooth="yes"/>
      <point x="1180" y="1427" type="line" smooth="no"/>
      <point x="1339" y="1427" type="line" smooth="no"/>
      <point x="1339" y="482" type="line" smooth="yes"/>
      <point x="1339" y="195"/>
      <point x="1279" y="0"/>
      <point x="997" y="0" type="curve" smooth="no"/>
      <point x="840" y="2"/>
      <point x="747" y="77"/>
      <point x="716" y="226" type="curve" smooth="no"/>
      <point x="684" y="81"/>
      <point x="609" y="3"/>
      <point x="444" y="0" type="curve" smooth="no"/>
      <point x="159" y="3"/>
      <point x="94" y="179"/>
      <point x="94" y="470" type="curve" smooth="yes"/>
      <point x="94" y="777" type="line" smooth="yes"/>
      <point x="94" y="979"/>
      <point x="155" y="1097"/>
      <point x="338" y="1104" type="curve" smooth="no"/>
      <point x="471" y="1102"/>
      <point x="558" y="1053"/>
      <point x="558" y="924" type="curve" smooth="yes"/>
      <point x="558" y="802"/>
      <point x="479" y="737"/>
      <point x="356" y="737" type="curve" smooth="yes"/>
      <point x="326" y="737"/>
      <point x="291" y="746"/>
      <point x="251" y="763" type="curve" smooth="no"/>
    </contour>
    <contour>
      <point x="434" y="914" type="curve" smooth="yes"/>
      <point x="434" y="971"/>
      <point x="409" y="1008"/>
      <point x="352" y="1008" type="curve" smooth="yes"/>
      <point x="267" y="1008"/>
      <point x="251" y="949"/>
      <point x="251" y="858" type="curve" smooth="yes"/>
      <point x="251" y="821" type="line" smooth="no"/>
      <point x="304" y="821" type="line" smooth="yes"/>
      <point x="384" y="821"/>
      <point x="434" y="836"/>
    </contour>
  </outline>
</glyph>
<glyph name="uni0EA1" format="1">
  <advance width="1495"/>
  <unicode hex="0ea1"/>
  <outline>
    <contour>
      <point x="651" y="415" type="line" smooth="yes"/>
      <point x="651" y="199"/>
      <point x="751" y="101"/>
      <point x="962" y="98" type="curve" smooth="no"/>
      <point x="1143" y="98"/>
      <point x="1245" y="192"/>
      <point x="1245" y="374" type="curve" smooth="yes"/>
      <point x="1245" y="1104" type="line" smooth="no"/>
      <point x="1403" y="1104" type="line" smooth="no"/>
      <point x="1403" y="467" type="line" smooth="yes"/>
      <point x="1403" y="161"/>
      <point x="1264" y="0"/>
      <point x="963" y="0" type="curve" smooth="yes"/>
      <point x="753" y="0"/>
      <point x="620" y="76"/>
      <point x="573" y="236" type="curve" smooth="no"/>
      <point x="533" y="79"/>
      <point x="414" y="0"/>
      <point x="216" y="0" type="curve" smooth="yes"/>
      <point x="88" y="0"/>
      <point x="-17" y="56"/>
      <point x="-17" y="185" type="curve" smooth="yes"/>
      <point x="-17" y="300"/>
      <point x="61" y="367"/>
      <point x="180" y="367" type="curve" smooth="yes"/>
      <point x="301" y="367"/>
      <point x="382" y="321"/>
      <point x="382" y="206" type="curve" smooth="yes"/>
      <point x="382" y="184"/>
      <point x="374" y="152"/>
      <point x="359" y="109" type="curve" smooth="no"/>
      <point x="449" y="142"/>
      <point x="494" y="243"/>
      <point x="494" y="414" type="curve" smooth="yes"/>
      <point x="494" y="1104" type="line" smooth="no"/>
      <point x="651" y="1104" type="line" smooth="no"/>
    </contour>
    <contour>
      <point x="191" y="283" type="curve" smooth="yes"/>
      <point x="130" y="283"/>
      <point x="107" y="244"/>
      <point x="107" y="182" type="curve" smooth="yes"/>
      <point x="107" y="103"/>
      <point x="155" y="94"/>
      <point x="235" y="94" type="curve" smooth="yes"/>
      <point x="247" y="94"/>
      <point x="260" y="95"/>
      <point x="272" y="95" type="curve" smooth="no"/>
      <point x="272" y="191" type="line" smooth="yes"/>
      <point x="272" y="248"/>
      <point x="246" y="283"/>
    </contour>
  </outline>
</glyph>
<glyph name="uni0EA3" format="1">
  <advance width="1253"/>
  <unicode hex="0ea3"/>
  <outline>
    <contour>
      <point x="82" y="307" type="curve" smooth="yes"/>
      <point x="82" y="459"/>
      <point x="159" y="534"/>
      <point x="310" y="535" type="curve" smooth="yes"/>
      <point x="440" y="535"/>
      <point x="524" y="480"/>
      <point x="524" y="353" type="curve" smooth="yes"/>
      <point x="524" y="246"/>
      <point x="449" y="177"/>
      <point x="345" y="174" type="curve" smooth="no"/>
      <point x="257" y="189" type="line" smooth="no"/>
      <point x="334" y="123"/>
      <point x="455" y="96"/>
      <point x="605" y="96" type="curve" smooth="yes"/>
      <point x="806" y="96"/>
      <point x="1003" y="126"/>
      <point x="1005" y="296" type="curve" smooth="no"/>
      <point x="1005" y="430"/>
      <point x="919" y="456"/>
      <point x="815" y="492" type="curve" smooth="yes"/>
      <point x="393" y="637" type="line" smooth="yes"/>
      <point x="264" y="682"/>
      <point x="104" y="718"/>
      <point x="104" y="878" type="curve" smooth="no"/>
      <point x="101" y="1073"/>
      <point x="355" y="1104"/>
      <point x="591" y="1104" type="curve" smooth="yes"/>
      <point x="886" y="1104"/>
      <point x="1144" y="1070"/>
      <point x="1144" y="785" type="curve" smooth="yes"/>
      <point x="1144" y="764" type="line" smooth="no"/>
      <point x="1018" y="764" type="line" smooth="no"/>
      <point x="1018" y="789" type="line" smooth="yes"/>
      <point x="1018" y="994"/>
      <point x="809" y="1005"/>
      <point x="596" y="1005" type="curve" smooth="yes"/>
      <point x="591.752" y="1005"/>
      <point x="587.446" y="1005"/>
      <point x="583.09" y="1005" type="curve" smooth="yes"/>
      <point x="446.972" y="1005"/>
      <point x="262" y="1003.12"/>
      <point x="262" y="882" type="curve" smooth="yes"/>
      <point x="262" y="777"/>
      <point x="436" y="747"/>
      <point x="529" y="716" type="curve" smooth="yes"/>
      <point x="656" y="674" type="line" smooth="no"/>
      <point x="861" y="608"/>
      <point x="1163" y="572"/>
      <point x="1163" y="312" type="curve" smooth="no"/>
      <point x="1165" y="63"/>
      <point x="887" y="0"/>
      <point x="601" y="0" type="curve" smooth="yes"/>
      <point x="356" y="0"/>
      <point x="82" y="72"/>
    </contour>
    <contour>
      <point x="247" y="253" type="line" smooth="yes"/>
      <point x="345" y="253"/>
      <point x="398" y="260"/>
      <point x="401" y="352" type="curve" smooth="no"/>
      <point x="401" y="409"/>
      <point x="378" y="447"/>
      <point x="323" y="447" type="curve" smooth="yes"/>
      <point x="241" y="447"/>
      <point x="200" y="396"/>
      <point x="200" y="312" type="curve" smooth="yes"/>
      <point x="200" y="293"/>
      <point x="204" y="273"/>
      <point x="211" y="253" type="curve" smooth="no"/>
    </contour>
  </outline>
</glyph>
<glyph name="uni0EA7" format="1">
  <advance width="1300"/>
  <unicode hex="0ea7"/>
  <outline>
    <contour>
      <point x="361" y="535" type="curve" smooth="yes"/>
      <point x="492" y="535"/>
      <point x="576" y="480"/>
      <point x="576" y="353" type="curve" smooth="yes"/>
      <point x="576" y="236"/>
      <point x="517" y="174"/>
      <point x="400" y="174" type="curve" smooth="no"/>
      <point x="297" y="192" type="line" smooth="no"/>
      <point x="357" y="128"/>
      <point x="469" y="96"/>
      <point x="634" y="96" type="curve" smooth="yes"/>
      <point x="911" y="96"/>
      <point x="1050" y="219"/>
      <point x="1050" y="464" type="curve" smooth="yes"/>
      <point x="1050" y="623" type="line" smooth="yes"/>
      <point x="1050" y="925"/>
      <point x="947" y="1005"/>
      <point x="645" y="1005" type="curve" smooth="yes"/>
      <point x="411" y="1005"/>
      <point x="243" y="928"/>
      <point x="237" y="713" type="curve" smooth="no"/>
      <point x="100" y="713" type="line" smooth="no"/>
      <point x="100" y="1003"/>
      <point x="356" y="1104"/>
      <point x="653" y="1104" type="curve" smooth="yes"/>
      <point x="999" y="1104"/>
      <point x="1207" y="1019"/>
      <point x="1207" y="677" type="curve" smooth="yes"/>
      <point x="1207" y="450" type="line" smooth="yes"/>
      <point x="1207" y="126"/>
      <point x="967" y="0"/>
      <point x="638" y="0" type="curve" smooth="yes"/>
      <point x="394" y="0"/>
      <point x="106" y="70"/>
      <point x="106" y="303" type="curve" smooth="yes"/>
      <point x="106" y="456"/>
      <point x="207" y="535"/>
    </contour>
    <contour>
      <point x="278" y="253" type="line" smooth="yes"/>
      <point x="379" y="253"/>
      <point x="451" y="255"/>
      <point x="451" y="352" type="curve" smooth="yes"/>
      <point x="451" y="418"/>
      <point x="423" y="446"/>
      <point x="358" y="446" type="curve" smooth="yes"/>
      <point x="284" y="446"/>
      <point x="253" y="390"/>
      <point x="253" y="312" type="curve" smooth="yes"/>
      <point x="253" y="293"/>
      <point x="256" y="273"/>
      <point x="261" y="253" type="curve" smooth="no"/>
    </contour>
  </outline>
</glyph>
<glyph name="uni0EAD" format="1">
  <advance width="1300"/>
  <unicode hex="0ead"/>
  <outline>
    <contour>
      <point x="636" y="1104" type="curve" smooth="yes"/>
      <point x="978" y="1104"/>
      <point x="1208" y="1009"/>
      <point x="1208" y="696" type="curve" smooth="yes"/>
      <point x="1208" y="506" type="line" smooth="yes"/>
      <point x="1208" y="144"/>
      <point x="1003" y="0"/>
      <point x="633" y="0" type="curve" smooth="yes"/>
      <point x="394" y="0"/>
      <point x="105" y="74"/>
      <point x="105" y="303" type="curve" smooth="yes"/>
      <point x="105" y="453"/>
      <point x="205" y="535"/>
      <point x="358" y="535" type="curve" smooth="yes"/>
      <point x="488" y="535"/>
      <point x="575" y="482"/>
      <point x="575" y="356" type="curve" smooth="yes"/>
      <point x="575" y="252"/>
      <point x="509" y="177"/>
      <point x="407" y="174" type="curve" smooth="no"/>
      <point x="371" y="174"/>
      <point x="337" y="181"/>
      <point x="297" y="188" type="curve" smooth="no"/>
      <point x="354" y="127"/>
      <point x="466" y="96"/>
      <point x="631" y="96" type="curve" smooth="yes"/>
      <point x="1016" y="96"/>
      <point x="1052" y="295"/>
      <point x="1052" y="684" type="curve" smooth="yes"/>
      <point x="1052" y="693" type="line" smooth="no"/>
      <point x="976" y="617"/>
      <point x="795" y="607"/>
      <point x="637" y="607" type="curve" smooth="yes"/>
      <point x="382" y="607"/>
      <point x="104" y="638"/>
      <point x="104" y="844" type="curve" smooth="yes"/>
      <point x="104" y="1064"/>
      <point x="402" y="1104"/>
    </contour>
    <contour>
      <point x="636" y="1005" type="curve" smooth="yes"/>
      <point x="460" y="1005"/>
      <point x="260" y="985"/>
      <point x="260" y="844" type="curve" smooth="no"/>
      <point x="262" y="714"/>
      <point x="461" y="711"/>
      <point x="636" y="711" type="curve" smooth="yes"/>
      <point x="778" y="711"/>
      <point x="1022" y="723"/>
      <point x="1030" y="844" type="curve" smooth="no"/>
      <point x="1026" y="979"/>
      <point x="786" y="1005"/>
    </contour>
    <contour>
      <point x="451" y="353" type="curve" smooth="yes"/>
      <point x="451" y="415"/>
      <point x="417" y="445"/>
      <point x="355" y="446" type="curve" smooth="no"/>
      <point x="282" y="445"/>
      <point x="253" y="392"/>
      <point x="253" y="312" type="curve" smooth="yes"/>
      <point x="253" y="290"/>
      <point x="256" y="269"/>
      <point x="261" y="253" type="curve" smooth="no"/>
      <point x="308" y="253" type="line" smooth="yes"/>
      <point x="396" y="253"/>
      <point x="451" y="267"/>
    </contour>
  </outline>
</glyph>
<glyph name="uni0EB1" format="1">
  <advance width="0"/>
  <unicode hex="0eb1"/>
  <outline>
    <contour>
      <point x="-873" y="1618" type="curve" smooth="yes"/>
      <point x="-772" y="1618"/>
      <point x="-692" y="1560"/>
      <point x="-692" y="1460" type="curve" smooth="yes"/>
      <point x="-692" y="1437"/>
      <point x="-696" y="1415"/>
      <point x="-703" y="1394" type="curve" smooth="yes"/>
      <point x="-727" y="1323" type="line" smooth="no"/>
      <point x="-501" y="1323" type="line" smooth="yes"/>
      <point x="-293" y="1323"/>
      <point x="-203" y="1398"/>
      <point x="-203" y="1605" type="curve" smooth="no"/>
      <point x="-93" y="1605" type="line" smooth="no"/>
      <point x="-93" y="1294"/>
      <point x="-229" y="1205"/>
      <point x="-541" y="1205" type="curve" smooth="yes"/>
      <point x="-687" y="1205" type="line" smooth="yes"/>
      <point x="-893" y="1205"/>
      <point x="-1083" y="1228"/>
      <point x="-1083" y="1427" type="curve" smooth="yes"/>
      <point x="-1083" y="1551"/>
      <point x="-1002" y="1618"/>
    </contour>
    <contour>
      <point x="-877" y="1512" type="curve" smooth="yes"/>
      <point x="-935" y="1512"/>
      <point x="-971" y="1484"/>
      <point x="-971" y="1427" type="curve" smooth="yes"/>
      <point x="-971" y="1354"/>
      <point x="-913" y="1323"/>
      <point x="-834" y="1323" type="curve" smooth="yes"/>
      <point x="-777" y="1323" type="line" smooth="no"/>
      <point x="-777" y="1411" type="line" smooth="yes"/>
      <point x="-777" y="1477"/>
      <point x="-812" y="1512"/>
    </contour>
  </outline>
</glyph>
<glyph name="uni0EB3" format="1">
  <advance width="1640"/>
  <unicode hex="0eb3"/>
  <outline>
    <contour>
      <point x="541" y="1397" type="curve" smooth="yes"/>
      <point x="541" y="1270"/>
      <point x="444" y="1188"/>
      <point x="318" y="1185" type="curve" smooth="no"/>
      <point x="192" y="1185"/>
      <point x="95" y="1273"/>
      <point x="95" y="1399" type="curve" smooth="yes"/>
      <point x="95" y="1522"/>
      <point x="194" y="1612"/>
      <point x="318" y="1612" type="curve" smooth="yes"/>
      <point x="445" y="1612"/>
      <point x="541" y="1524"/>
    </contour>
    <contour>
      <point x="322" y="1272" type="curve" smooth="yes"/>
      <point x="396" y="1272"/>
      <point x="447" y="1323"/>
      <point x="450" y="1396" type="curve" smooth="no"/>
      <point x="450" y="1468"/>
      <point x="395" y="1523"/>
      <point x="322" y="1523" type="curve" smooth="yes"/>
      <point x="249" y="1523"/>
      <point x="192" y="1469"/>
      <point x="192" y="1396" type="curve" smooth="yes"/>
      <point x="192" y="1325"/>
      <point x="250" y="1272"/>
    </contour>
    <contour>
      <point x="793" y="891" type="curve" smooth="yes"/>
      <point x="793" y="1039"/>
      <point x="975" y="1104"/>
      <point x="1129" y="1104" type="curve" smooth="yes"/>
      <point x="1400" y="1104"/>
      <point x="1549" y="991"/>
      <point x="1549" y="727" type="curve" smooth="yes"/>
      <point x="1549" y="0" type="line" smooth="no"/>
      <point x="1392" y="0" type="line" smooth="no"/>
      <point x="1392" y="732" type="line" smooth="yes"/>
      <point x="1392" y="886"/>
      <point x="1336" y="985"/>
      <point x="1206" y="1005" type="curve" smooth="no"/>
      <point x="1213" y="954"/>
      <point x="1217" y="921"/>
      <point x="1224" y="869" type="curve" smooth="no"/>
      <point x="1224" y="741"/>
      <point x="1162" y="678"/>
      <point x="1031" y="678" type="curve" smooth="yes"/>
      <point x="890" y="678"/>
      <point x="793" y="750"/>
    </contour>
    <contour>
      <point x="915" y="896" type="curve" smooth="no"/>
      <point x="915" y="820"/>
      <point x="957" y="771"/>
      <point x="1033" y="771" type="curve" smooth="yes"/>
      <point x="1125" y="771"/>
      <point x="1134" y="820"/>
      <point x="1134" y="913" type="curve" smooth="yes"/>
      <point x="1134" y="1010" type="line" smooth="no"/>
      <point x="1017" y="1007"/>
      <point x="920" y="991"/>
    </contour>
  </outline>
</glyph>
<glyph name="uni0EB4" format="1">
  <advance width="0"/>
  <unicode hex="0eb4"/>
  <outline>
    <contour>
      <point x="-422" y="1302" type="line" smooth="yes"/>
      <point x="-321" y="1302"/>
      <point x="-221" y="1317"/>
      <point x="-221" y="1419" type="curve" smooth="yes"/>
      <point x="-221" y="1518"/>
      <point x="-342" y="1567"/>
      <point x="-585" y="1567" type="curve" smooth="yes"/>
      <point x="-828" y="1567"/>
      <point x="-950" y="1517"/>
      <point x="-950" y="1418" type="curve" smooth="yes"/>
      <point x="-950" y="1315"/>
      <point x="-851" y="1302"/>
      <point x="-748" y="1302" type="curve" smooth="yes"/>
      <point x="-704" y="1302" type="line" smooth="no"/>
      <point x="-704" y="1205" type="line" smooth="no"/>
      <point x="-767" y="1205" type="line" smooth="yes"/>
      <point x="-947" y="1205"/>
      <point x="-1077" y="1259"/>
      <point x="-1077" y="1424" type="curve" smooth="yes"/>
      <point x="-1077" y="1637"/>
      <point x="-800" y="1670"/>
      <point x="-585" y="1670" type="curve" smooth="yes"/>
      <point x="-358" y="1670"/>
      <point x="-93" y="1632"/>
      <point x="-93" y="1405" type="curve" smooth="yes"/>
      <point x="-93" y="1247"/>
      <point x="-249" y="1205"/>
      <point x="-426" y="1205" type="curve" smooth="yes"/>
      <point x="-466" y="1205" type="line" smooth="no"/>
      <point x="-466" y="1302" type="line" smooth="no"/>
    </contour>
  </outline>
</glyph>
<glyph name="uni0EB6" format="1">
  <advance width="0"/>
  <unicode hex="0eb6"/>
  <outline>
    <contour>
      <point x="-422" y="1302" type="line" smooth="yes"/>
      <point x="-305" y="1302"/>
      <point x="-221" y="1315"/>
      <point x="-221" y="1419" type="curve" smooth="yes"/>
      <point x="-221" y="1516"/>
      <point x="-342" y="1566"/>
      <point x="-585" y="1567" type="curve" smooth="no"/>
      <point x="-829" y="1567"/>
      <point x="-951" y="1517"/>
      <point x="-951" y="1418" type="curve" smooth="yes"/>
      <point x="-951" y="1314"/>
      <point x="-856" y="1302"/>
      <point x="-748" y="1302" type="curve" smooth="yes"/>
      <point x="-704" y="1302" type="line" smooth="no"/>
      <point x="-704" y="1205" type="line" smooth="no"/>
      <point x="-767" y="1205" type="line" smooth="yes"/>
      <point x="-947" y="1205"/>
      <point x="-1077" y="1259"/>
      <point x="-1077" y="1424" type="curve" smooth="yes"/>
      <point x="-1077" y="1634"/>
      <point x="-797" y="1670"/>
      <point x="-585" y="1670" type="curve" smooth="yes"/>
      <point x="-359" y="1670"/>
      <point x="-93" y="1640"/>
      <point x="-93" y="1418" type="curve" smooth="yes"/>
      <point x="-93" y="1250"/>
      <point x="-242" y="1205"/>
      <point x="-426" y="1205" type="curve" smooth="yes"/>
      <point x="-466" y="1205" type="line" smooth="no"/>
      <point x="-466" y="1302" type="line" smooth="no"/>
    </contour>
    <contour>
      <point x="-581" y="1468" type="curve" smooth="yes"/>
      <point x="-537" y="1468"/>
      <point x="-492" y="1443"/>
      <point x="-492" y="1399" type="curve" smooth="yes"/>
      <point x="-492" y="1352"/>
      <point x="-530" y="1324"/>
      <point x="-581" y="1324" type="curve" smooth="yes"/>
      <point x="-628" y="1324"/>
      <point x="-670" y="1352"/>
      <point x="-670" y="1399" type="curve" smooth="yes"/>
      <point x="-670" y="1441"/>
      <point x="-627" y="1468"/>
    </contour>
  </outline>
</glyph>
<glyph name="uni0EBB" format="1">
  <advance width="0"/>
  <unicode hex="0ebb"/>
  <outline>
    <contour>
      <point x="-845" y="1205" type="curve" smooth="yes"/>
      <point x="-972" y="1205"/>
      <point x="-1056" y="1273"/>
      <point x="-1056" y="1400" type="curve" smooth="yes"/>
      <point x="-1056" y="1598"/>
      <point x="-858" y="1618"/>
      <point x="-653" y="1618" type="curve" smooth="yes"/>
      <point x="-512" y="1618" type="line" smooth="yes"/>
      <point x="-202" y="1618"/>
      <point x="-94" y="1515"/>
      <point x="-94" y="1205" type="curve" smooth="no"/>
      <point x="-204" y="1205" type="line" smooth="no"/>
      <point x="-204" y="1423"/>
      <point x="-277" y="1502"/>
      <point x="-495" y="1502" type="curve" smooth="yes"/>
      <point x="-700" y="1502" type="line" smooth="no"/>
      <point x="-676" y="1436" type="line" smooth="yes"/>
      <point x="-667" y="1410"/>
      <point x="-662" y="1386"/>
      <point x="-662" y="1365" type="curve" smooth="yes"/>
      <point x="-662" y="1265"/>
      <point x="-744" y="1205"/>
    </contour>
    <contour>
      <point x="-800" y="1502" type="line" smooth="yes"/>
      <point x="-883" y="1502"/>
      <point x="-941" y="1473"/>
      <point x="-944" y="1399" type="curve" smooth="no"/>
      <point x="-942" y="1342"/>
      <point x="-911" y="1312"/>
      <point x="-852" y="1311" type="curve" smooth="no"/>
      <point x="-789" y="1311"/>
      <point x="-755" y="1343"/>
      <point x="-750" y="1406" type="curve" smooth="no"/>
      <point x="-750" y="1502" type="line" smooth="no"/>
    </contour>
  </outline>
</glyph>
<glyph name="uni0EC3" format="1">
  <advance width="823"/>
  <unicode hex="0ec3"/>
  <outline>
    <contour>
      <point x="347" y="1656" type="curve" smooth="yes"/>
      <point x="186" y="1656"/>
      <point x="96" y="1586"/>
      <point x="96" y="1428" type="curve" smooth="yes"/>
      <point x="96" y="1320"/>
      <point x="143" y="1266"/>
      <point x="236" y="1266" type="curve" smooth="yes"/>
      <point x="309" y="1266"/>
      <point x="359" y="1295"/>
      <point x="359" y="1366" type="curve" smooth="yes"/>
      <point x="359" y="1407"/>
      <point x="342" y="1447"/>
      <point x="314" y="1482" type="curve" smooth="no"/>
      <point x="440" y="1482" type="line" smooth="no"/>
      <point x="462" y="1452"/>
      <point x="479" y="1415"/>
      <point x="479" y="1365" type="curve" smooth="yes"/>
      <point x="479" y="1233"/>
      <point x="372" y="1165"/>
      <point x="238" y="1165" type="curve" smooth="yes"/>
      <point x="80" y="1165"/>
      <point x="-32" y="1267"/>
      <point x="-32" y="1425" type="curve" smooth="yes"/>
      <point x="-32" y="1653"/>
      <point x="121" y="1772"/>
      <point x="350" y="1772" type="curve" smooth="yes"/>
      <point x="609" y="1772"/>
      <point x="775" y="1647"/>
      <point x="775" y="1389" type="curve" smooth="yes"/>
      <point x="775" y="1232"/>
      <point x="690" y="1089"/>
      <point x="519" y="962" type="curve" smooth="yes"/>
      <point x="417" y="886"/>
      <point x="360" y="860"/>
      <point x="360" y="691" type="curve" smooth="yes"/>
      <point x="360" y="339" type="line" smooth="no"/>
      <point x="395" y="351"/>
      <point x="429" y="367"/>
      <point x="467" y="367" type="curve" smooth="yes"/>
      <point x="581" y="367"/>
      <point x="674" y="304"/>
      <point x="674" y="191" type="curve" smooth="yes"/>
      <point x="674" y="57"/>
      <point x="589" y="0"/>
      <point x="450" y="0" type="curve" smooth="yes"/>
      <point x="259" y="0"/>
      <point x="200" y="135"/>
      <point x="200" y="339" type="curve" smooth="yes"/>
      <point x="200" y="645" type="line" smooth="yes"/>
      <point x="200" y="856"/>
      <point x="247" y="943"/>
      <point x="371" y="1026" type="curve" smooth="yes"/>
      <point x="463" y="1088" type="line" smooth="yes"/>
      <point x="566" y="1158"/>
      <point x="635" y="1230"/>
      <point x="635" y="1397" type="curve" smooth="yes"/>
      <point x="635" y="1570"/>
      <point x="539" y="1656"/>
    </contour>
    <contour>
      <point x="449" y="94" type="curve" smooth="yes"/>
      <point x="514" y="94"/>
      <point x="541" y="129"/>
      <point x="541" y="197" type="curve" smooth="yes"/>
      <point x="541" y="259"/>
      <point x="497" y="283"/>
      <point x="430" y="283" type="curve" smooth="yes"/>
      <point x="360" y="283" type="line" smooth="no"/>
      <point x="360" y="233" type="line" smooth="yes"/>
      <point x="360" y="153"/>
      <point x="378" y="94"/>
    </contour>
  </outline>
</glyph>
<glyph name="uni0EC4" format="1">
  <advance width="769"/>
  <unicode hex="0ec4"/>
  <outline>
    <contour>
      <point x="428" y="367" type="curve" smooth="yes"/>
      <point x="546" y="367"/>
      <point x="639" y="308"/>
      <point x="639" y="191" type="curve" smooth="yes"/>
      <point x="639" y="64"/>
      <point x="564" y="0"/>
      <point x="415" y="0" type="curve" smooth="yes"/>
      <point x="250" y="1"/>
      <point x="167" y="114"/>
      <point x="167" y="337" type="curve" smooth="yes"/>
      <point x="167" y="916" type="line" smooth="yes"/>
      <point x="167" y="1165"/>
      <point x="275" y="1263"/>
      <point x="422" y="1372" type="curve" smooth="no"/>
      <point x="494" y="1426" type="line" smooth="yes"/>
      <point x="541" y="1461"/>
      <point x="599" y="1485"/>
      <point x="605" y="1548" type="curve" smooth="no"/>
      <point x="604" y="1585"/>
      <point x="581" y="1606"/>
      <point x="537" y="1611" type="curve" smooth="no"/>
      <point x="444" y="1607"/>
      <point x="328" y="1499"/>
      <point x="271" y="1464" type="curve" smooth="yes"/>
      <point x="198" y="1419"/>
      <point x="135" y="1370"/>
      <point x="37" y="1370" type="curve" smooth="yes"/>
      <point x="-81" y="1370"/>
      <point x="-158" y="1424"/>
      <point x="-158" y="1542" type="curve" smooth="yes"/>
      <point x="-158" y="1728" type="line" smooth="no"/>
      <point x="-30" y="1728" type="line" smooth="no"/>
      <point x="-30" y="1539" type="line" smooth="yes"/>
      <point x="-30" y="1506"/>
      <point x="-5" y="1484"/>
      <point x="31" y="1484" type="curve" smooth="yes"/>
      <point x="87" y="1484"/>
      <point x="140" y="1521"/>
      <point x="189" y="1552" type="curve" smooth="yes"/>
      <point x="281" y="1610" type="line" smooth="no"/>
      <point x="407" y="1688"/>
      <point x="400" y="1729"/>
      <point x="543" y="1729" type="curve" smooth="yes"/>
      <point x="661" y="1729"/>
      <point x="743" y="1668"/>
      <point x="743" y="1550" type="curve" smooth="yes"/>
      <point x="743" y="1371"/>
      <point x="449" y="1263"/>
      <point x="374" y="1140" type="curve" smooth="yes"/>
      <point x="337" y="1078"/>
      <point x="325" y="1014"/>
      <point x="325" y="916" type="curve" smooth="yes"/>
      <point x="325" y="339" type="line" smooth="no"/>
      <point x="363" y="352"/>
      <point x="395" y="367"/>
    </contour>
    <contour>
      <point x="423" y="95" type="curve" smooth="no"/>
      <point x="480" y="98"/>
      <point x="508" y="129"/>
      <point x="508" y="191" type="curve" smooth="yes"/>
      <point x="508" y="252"/>
      <point x="473" y="283"/>
      <point x="402" y="283" type="curve" smooth="yes"/>
      <point x="325" y="283" type="line" smooth="no"/>
      <point x="325" y="229" type="line" smooth="yes"/>
      <point x="325" y="144"/>
      <point x="348" y="99"/>
    </contour>
  </outline>
</glyph>
<glyph name="uni0EC6" format="1">
  <advance width="1299"/>
  <unicode hex="0ec6"/>
  <outline>
    <contour>
      <point x="909" y="1104" type="curve" smooth="yes"/>
      <point x="1132" y="1104"/>
      <point x="1194" y="916"/>
      <point x="1194" y="665" type="curve" smooth="yes"/>
      <point x="1194" y="272" type="line" smooth="yes"/>
      <point x="1194" y="-114"/>
      <point x="1087" y="-364"/>
      <point x="707" y="-364" type="curve" smooth="yes"/>
      <point x="520" y="-364"/>
      <point x="376" y="-302"/>
      <point x="277" y="-179" type="curve" smooth="no"/>
      <point x="325" y="-137" type="line" smooth="no"/>
      <point x="433" y="-204"/>
      <point x="549" y="-254"/>
      <point x="707" y="-254" type="curve" smooth="yes"/>
      <point x="991" y="-254"/>
      <point x="1038" y="-21"/>
      <point x="1038" y="270" type="curve" smooth="yes"/>
      <point x="1038" y="734" type="line" smooth="yes"/>
      <point x="1038" y="915"/>
      <point x="991" y="1006"/>
      <point x="896" y="1006" type="curve" smooth="yes"/>
      <point x="753" y="1006"/>
      <point x="742" y="830"/>
      <point x="622" y="830" type="curve" smooth="yes"/>
      <point x="505" y="830"/>
      <point x="470" y="1006"/>
      <point x="336" y="1006" type="curve" smooth="yes"/>
      <point x="261" y="1006"/>
      <point x="224" y="931"/>
      <point x="224" y="780" type="curve" smooth="yes"/>
      <point x="224" y="742" type="line" smooth="no"/>
      <point x="254" y="756"/>
      <point x="287" y="771"/>
      <point x="323" y="771" type="curve" smooth="yes"/>
      <point x="444" y="771"/>
      <point x="535" y="713"/>
      <point x="535" y="593" type="curve" smooth="yes"/>
      <point x="535" y="462"/>
      <point x="453" y="405"/>
      <point x="317" y="405" type="curve" smooth="yes"/>
      <point x="136" y="405"/>
      <point x="66" y="535"/>
      <point x="66" y="731" type="curve" smooth="yes"/>
      <point x="66" y="938"/>
      <point x="134" y="1104"/>
      <point x="337" y="1104" type="curve" smooth="yes"/>
      <point x="473" y="1104"/>
      <point x="563" y="1026"/>
      <point x="620" y="946" type="curve" smooth="no"/>
      <point x="681" y="1022"/>
      <point x="774" y="1104"/>
    </contour>
    <contour>
      <point x="406" y="583" type="curve" smooth="yes"/>
      <point x="406" y="586"/>
      <point x="405" y="587"/>
      <point x="405" y="590" type="curve" smooth="yes"/>
      <point x="405" y="674"/>
      <point x="354" y="686"/>
      <point x="270" y="686" type="curve" smooth="yes"/>
      <point x="224" y="686" type="line" smooth="no"/>
      <point x="224" y="638" type="line" smooth="yes"/>
      <point x="224" y="555"/>
      <point x="241" y="501"/>
      <point x="319" y="498" type="curve" smooth="no"/>
      <point x="373" y="499"/>
      <point x="406" y="527"/>
    </contour>
  </outline>
</glyph>
<glyph name="uni0EC8" format="1">
  <advance width="0"/>
  <unicode hex="0ec8"/>
  <outline>
    <contour>
      <point x="-533" y="1270" type="line" smooth="no"/>
      <point x="-533" y="1680" type="line" smooth="no"/>
      <point x="-395" y="1680" type="line" smooth="no"/>
      <point x="-395" y="1270" type="line" smooth="no"/>
    </contour>
  </outline>
</glyph>
<glyph name="uni0ECA" format="1">
  <advance width="0"/>
  <unicode hex="0eca"/>
  <outline>
    <contour>
      <point x="-1047" y="1430" type="curve" smooth="yes"/>
      <point x="-1047" y="1529"/>
      <point x="-981" y="1593"/>
      <point x="-881" y="1593" type="curve" smooth="yes"/>
      <point x="-792" y="1593"/>
      <point x="-737" y="1552"/>
      <point x="-715" y="1489" type="curve" smooth="no"/>
      <point x="-693" y="1548"/>
      <point x="-642" y="1593"/>
      <point x="-558" y="1593" type="curve" smooth="yes"/>
      <point x="-453" y="1593"/>
      <point x="-382" y="1532"/>
      <point x="-382" y="1428" type="curve" smooth="yes"/>
      <point x="-382" y="1362"/>
      <point x="-413" y="1324"/>
      <point x="-466" y="1310" type="curve" smooth="no"/>
      <point x="-278" y="1310" type="line" smooth="no"/>
      <point x="-278" y="1233" type="line" smooth="no"/>
      <point x="-627" y="1233" type="line" smooth="no"/>
      <point x="-627" y="1310" type="line" smooth="no"/>
      <point x="-544" y="1310"/>
      <point x="-479" y="1338"/>
      <point x="-479" y="1421" type="curve" smooth="yes"/>
      <point x="-479" y="1482"/>
      <point x="-508" y="1513"/>
      <point x="-565" y="1513" type="curve" smooth="yes"/>
      <point x="-626" y="1513"/>
      <point x="-665" y="1467"/>
      <point x="-665" y="1405" type="curve" smooth="no"/>
      <point x="-763" y="1405" type="line" smooth="no"/>
      <point x="-763" y="1468"/>
      <point x="-806" y="1513"/>
      <point x="-867" y="1513" type="curve" smooth="yes"/>
      <point x="-916" y="1513"/>
      <point x="-948" y="1479"/>
      <point x="-948" y="1428" type="curve" smooth="yes"/>
      <point x="-948" y="1341"/>
      <point x="-908" y="1310"/>
      <point x="-814" y="1310" type="curve" smooth="no"/>
      <point x="-814" y="1234" type="line" smooth="no"/>
      <point x="-951" y="1234"/>
      <point x="-1047" y="1293"/>
    </contour>
  </outline>
</glyph>
<glyph name="uni0ECB" format="1">
  <advance width="0"/>
  <unicode hex="0ecb"/>
  <outline>
    <contour>
      <point x="-754" y="1257" type="line" smooth="no"/>
      <point x="-868" y="1257" type="line" smooth="no"/>
      <point x="-868" y="1369" type="line" smooth="no"/>
      <point x="-982" y="1369" type="line" smooth="no"/>
      <point x="-982" y="1475" type="line" smooth="no"/>
      <point x="-868" y="1475" type="line" smooth="no"/>
      <point x="-868" y="1588" type="line" smooth="no"/>
      <point x="-754" y="1588" type="line" smooth="no"/>
      <point x="-754" y="1475" type="line" smooth="no"/>
      <point x="-639" y="1475" type="line" smooth="no"/>
      <point x="-639" y="1369" type="line" smooth="no"/>
      <point x="-754" y="1369" type="line" smooth="no"/>
    </contour>
  </outline>
</glyph>
<glyph name="uni0ECD" format="1">
  <advance width="0"/>
  <unicode hex="0ecd"/>
  <outline>
    <contour>
      <point x="-360" y="1435" type="curve" smooth="yes"/>
      <point x="-360" y="1314"/>
      <point x="-455" y="1226"/>
      <point x="-577" y="1226" type="curve" smooth="yes"/>
      <point x="-699" y="1226"/>
      <point x="-796" y="1313"/>
      <point x="-796" y="1435" type="curve" smooth="yes"/>
      <point x="-796" y="1557"/>
      <point x="-700" y="1645"/>
      <point x="-577" y="1645" type="curve" smooth="yes"/>
      <point x="-457" y="1645"/>
      <point x="-360" y="1556"/>
    </contour>
    <contour>
      <point x="-579" y="1324" type="curve" smooth="yes"/>
      <point x="-512" y="1324"/>
      <point x="-463" y="1372"/>
      <point x="-463" y="1439" type="curve" smooth="yes"/>
      <point x="-463" y="1503"/>
      <point x="-514" y="1555"/>
      <point x="-579" y="1555" type="curve" smooth="yes"/>
      <point x="-642" y="1555"/>
      <point x="-693" y="1502"/>
      <point x="-693" y="1439" type="curve" smooth="yes"/>
      <point x="-693" y="1374"/>
      <point x="-645" y="1324"/>
    </contour>
  </outline>
</glyph>
<glyph name="uni0ED5" format="1">
  <advance width="1284"/>
  <unicode hex="0ed5"/>
  <outline>
    <contour>
      <point x="322" y="1183" type="curve" smooth="yes"/>
      <point x="322" y="1300"/>
      <point x="433" y="1368"/>
      <point x="552" y="1368" type="curve" smooth="yes"/>
      <point x="665" y="1368"/>
      <point x="743" y="1310"/>
      <point x="743" y="1198" type="curve" smooth="yes"/>
      <point x="743" y="1189"/>
      <point x="742" y="1181"/>
      <point x="740" y="1172" type="curve" smooth="no"/>
      <point x="760" y="1181" type="line" smooth="no"/>
      <point x="852" y="1228"/>
      <point x="912" y="1308"/>
      <point x="993" y="1404" type="curve" smooth="no"/>
      <point x="1066" y="1348" type="line" smooth="no"/>
      <point x="969" y="1193"/>
      <point x="847" y="1074"/>
      <point x="645" y="1025" type="curve" smooth="no"/>
      <point x="548" y="915"/>
      <point x="373" y="936"/>
      <point x="304" y="794" type="curve" smooth="yes"/>
      <point x="261" y="706"/>
      <point x="253" y="593"/>
      <point x="253" y="451" type="curve" smooth="yes"/>
      <point x="253" y="228"/>
      <point x="376" y="98"/>
      <point x="599" y="98" type="curve" smooth="yes"/>
      <point x="1016" y="98" type="line" smooth="no"/>
      <point x="962" y="126" type="line" smooth="yes"/>
      <point x="799" y="211"/>
      <point x="646" y="356"/>
      <point x="646" y="596" type="curve" smooth="yes"/>
      <point x="646" y="777"/>
      <point x="718" y="893"/>
      <point x="892" y="893" type="curve" smooth="yes"/>
      <point x="1038" y="893"/>
      <point x="1111" y="836"/>
      <point x="1111" y="721" type="curve" smooth="yes"/>
      <point x="1111" y="603"/>
      <point x="1031" y="525"/>
      <point x="912" y="525" type="curve" smooth="yes"/>
      <point x="877" y="525"/>
      <point x="844" y="540"/>
      <point x="809" y="552" type="curve" smooth="no"/>
      <point x="842" y="327"/>
      <point x="1004" y="181"/>
      <point x="1243" y="162" type="curve" smooth="no"/>
      <point x="1225" y="0" type="line" smooth="no"/>
      <point x="587" y="0" type="line" smooth="yes"/>
      <point x="290" y="0"/>
      <point x="95" y="151"/>
      <point x="95" y="447" type="curve" smooth="yes"/>
      <point x="95" y="749"/>
      <point x="150" y="928"/>
      <point x="357" y="1018" type="curve" smooth="no"/>
      <point x="398" y="1033" type="line" smooth="no"/>
      <point x="351" y="1061"/>
      <point x="322" y="1109"/>
    </contour>
    <contour>
      <point x="436" y="1172" type="curve" smooth="yes"/>
      <point x="436" y="1116"/>
      <point x="480" y="1098"/>
      <point x="541" y="1096" type="curve" smooth="no"/>
      <point x="597" y="1096"/>
      <point x="626" y="1139"/>
      <point x="626" y="1200" type="curve" smooth="no"/>
      <point x="623" y="1238"/>
      <point x="593" y="1255"/>
      <point x="550" y="1255" type="curve" smooth="yes"/>
      <point x="487" y="1255"/>
      <point x="436" y="1232"/>
    </contour>
    <contour>
      <point x="902" y="797" type="curve" smooth="no"/>
      <point x="811" y="797"/>
      <point x="806" y="722"/>
      <point x="804" y="631" type="curve" smooth="no"/>
      <point x="804" y="610" type="line" smooth="no"/>
      <point x="856" y="610" type="line" smooth="yes"/>
      <point x="942" y="610"/>
      <point x="985" y="628"/>
      <point x="988" y="710" type="curve" smooth="no"/>
      <point x="982" y="765"/>
      <point x="953" y="794"/>
    </contour>
  </outline>
</glyph>
<glyph name="uni0EDC" format="1">
  <advance width="2544"/>
  <unicode hex="0edc"/>
  <outline>
    <contour>
      <point x="589" y="923" type="curve" smooth="yes"/>
      <point x="589" y="1048"/>
      <point x="693" y="1104"/>
      <point x="829" y="1104" type="curve" smooth="yes"/>
      <point x="956" y="1104"/>
      <point x="1022" y="1040"/>
      <point x="1047" y="933" type="curve" smooth="no"/>
      <point x="1127" y="1006"/>
      <point x="1214" y="1103"/>
      <point x="1362" y="1103" type="curve" smooth="yes"/>
      <point x="1625" y="1103"/>
      <point x="1681" y="912"/>
      <point x="1681" y="644" type="curve" smooth="yes"/>
      <point x="1681" y="384" type="line" smooth="yes"/>
      <point x="1681" y="206"/>
      <point x="1815" y="98"/>
      <point x="1995" y="98" type="curve" smooth="yes"/>
      <point x="2214" y="98"/>
      <point x="2287" y="187"/>
      <point x="2287" y="406" type="curve" smooth="yes"/>
      <point x="2287" y="1104" type="line" smooth="no"/>
      <point x="2445" y="1104" type="line" smooth="no"/>
      <point x="2445" y="434" type="line" smooth="yes"/>
      <point x="2445" y="135"/>
      <point x="2294" y="0"/>
      <point x="1994" y="0" type="curve" smooth="yes"/>
      <point x="1783" y="0"/>
      <point x="1650" y="78"/>
      <point x="1599" y="236" type="curve" smooth="no"/>
      <point x="1567" y="80"/>
      <point x="1423" y="1"/>
      <point x="1168" y="0" type="curve" smooth="no"/>
      <point x="1168" y="98" type="line" smooth="no"/>
      <point x="1383" y="98"/>
      <point x="1522" y="177"/>
      <point x="1522" y="382" type="curve" smooth="yes"/>
      <point x="1522" y="638" type="line" smooth="yes"/>
      <point x="1522" y="828"/>
      <point x="1517" y="1006"/>
      <point x="1335" y="1006" type="curve" smooth="yes"/>
      <point x="1224" y="1006"/>
      <point x="1118" y="876"/>
      <point x="1056" y="812" type="curve" smooth="no"/>
      <point x="1056" y="451" type="line" smooth="yes"/>
      <point x="1056" y="141"/>
      <point x="949" y="0"/>
      <point x="641" y="0" type="curve" smooth="yes"/>
      <point x="412" y="0"/>
      <point x="181" y="67"/>
      <point x="181" y="289" type="curve" smooth="yes"/>
      <point x="181" y="404"/>
      <point x="226" y="510"/>
      <point x="265" y="638" type="curve" smooth="yes"/>
      <point x="300" y="752" type="line" smooth="no"/>
      <point x="270" y="744"/>
      <point x="246" y="735"/>
      <point x="214" y="735" type="curve" smooth="yes"/>
      <point x="101" y="735"/>
      <point x="28" y="807"/>
      <point x="28" y="921" type="curve" smooth="yes"/>
      <point x="28" y="1054"/>
      <point x="118" y="1104"/>
      <point x="259" y="1104" type="curve" smooth="yes"/>
      <point x="379" y="1104"/>
      <point x="479" y="1028"/>
      <point x="479" y="908" type="curve" smooth="yes"/>
      <point x="479" y="717"/>
      <point x="338" y="460"/>
      <point x="338" y="277" type="curve" smooth="yes"/>
      <point x="338" y="139"/>
      <point x="487" y="98"/>
      <point x="630" y="98" type="curve" smooth="yes"/>
      <point x="839" y="98"/>
      <point x="897" y="206"/>
      <point x="897" y="417" type="curve" smooth="yes"/>
      <point x="897" y="730" type="line" smooth="no"/>
      <point x="874" y="723"/>
      <point x="849" y="720"/>
      <point x="820" y="720" type="curve" smooth="yes"/>
      <point x="676" y="720"/>
      <point x="589" y="782"/>
    </contour>
    <contour>
      <point x="897" y="870" type="line" smooth="yes"/>
      <point x="897" y="949"/>
      <point x="884" y="1008"/>
      <point x="817" y="1008" type="curve" smooth="yes"/>
      <point x="753" y="1008"/>
      <point x="712" y="980"/>
      <point x="712" y="917" type="curve" smooth="yes"/>
      <point x="712" y="846"/>
      <point x="756" y="812"/>
      <point x="826" y="812" type="curve" smooth="yes"/>
      <point x="849" y="812"/>
      <point x="873" y="817"/>
      <point x="897" y="826" type="curve" smooth="no"/>
    </contour>
    <contour>
      <point x="245" y="1008" type="curve" smooth="yes"/>
      <point x="182" y="1008"/>
      <point x="152" y="983"/>
      <point x="152" y="921" type="curve" smooth="yes"/>
      <point x="152" y="841"/>
      <point x="192" y="821"/>
      <point x="274" y="821" type="curve" smooth="yes"/>
      <point x="320" y="821" type="line" smooth="no"/>
      <point x="333" y="874"/>
      <point x="340" y="908"/>
      <point x="340" y="921" type="curve" smooth="yes"/>
      <point x="340" y="973"/>
      <point x="300" y="1008"/>
    </contour>
  </outline>
</glyph>
<glyph name="endash" format="1">
  <advance width="1265"/>
  <unicode hex="2013"/>
  <outline>
    <contour>
      <point x="832" y="555" type="line" smooth="no"/>
      <point x="362" y="555" type="line" smooth="no"/>
      <point x="362" y="699" type="line" smooth="no"/>
      <point x="832" y="699" type="line" smooth="no"/>
    </contour>
  </outline>
</glyph>
<glyph name="emdash" format="1">
  <advance width="1265"/>
  <unicode hex="2014"/>
  <outline>
    <contour>
      <point x="1067" y="555" type="line" smooth="no"/>
      <point x="127" y="555" type="line" smooth="no"/>
      <point x="127" y="699" type="line" smooth="no"/>
      <point x="1067" y="699" type="line" smooth="no"/>
    </contour>
  </outline>
</glyph>
<glyph name="bullet" format="1">
  <advance width="1361"/>
  <unicode hex="2022"/>
  <outline>
    <contour>
      <point x="999" y="692" type="curve" smooth="yes"/>
      <point x="999" y="503"/>
      <point x="841" y="358"/>
      <point x="649" y="358" type="curve" smooth="yes"/>
      <point x="451" y="358"/>
      <point x="301" y="495"/>
      <point x="301" y="692" type="curve" smooth="yes"/>
      <point x="301" y="890"/>
      <point x="450" y="1028"/>
      <point x="649" y="1028" type="curve" smooth="yes"/>
      <point x="846" y="1028"/>
      <point x="999" y="889"/>
    </contour>
  </outline>
</glyph>
<glyph name="guilsinglright" format="1">
  <advance width="768"/>
  <unicode hex="203a"/>
  <outline>
    <contour>
      <point x="80" y="1049" type="line" smooth="no"/>
      <point x="688" y="666" type="line" smooth="no"/>
      <point x="688" y="481" type="line" smooth="no"/>
      <point x="80" y="99" type="line" smooth="no"/>
      <point x="80" y="306" type="line" smooth="no"/>
      <point x="526" y="577" type="line" smooth="no"/>
      <point x="80" y="842" type="line" smooth="no"/>
    </contour>
  </outline>
</glyph>
<glyph name="uni20AD" format="1">
  <advance width="932"/>
  <unicode hex="20ad"/>
  <outline>
    <contour>
      <point x="251" y="602" type="line" smooth="no"/>
      <point x="663" y="1060" type="line" smooth="no"/>
      <point x="833" y="1060" type="line" smooth="no"/>
      <point x="420" y="602" type="line" smooth="no"/>
      <point x="833" y="602" type="line" smooth="no"/>
      <point x="833" y="500" type="line" smooth="no"/>
      <point x="418" y="500" type="line" smooth="no"/>
      <point x="833" y="0" type="line" smooth="no"/>
      <point x="666" y="0" type="line" smooth="no"/>
      <point x="251" y="500" type="line" smooth="no"/>
      <point x="251" y="0" type="line" smooth="no"/>
      <point x="101" y="0" type="line" smooth="no"/>
      <point x="101" y="1060" type="line" smooth="no"/>
      <point x="251" y="1060" type="line" smooth="no"/>
    </contour>
  </outline>
</glyph>
<glyph name="trademark" format="1">
  <advance width="1634"/>
  <unicode hex="2122"/>
  <outline>
    <contour>
      <point x="1149" y="758" type="line" smooth="no"/>
      <point x="1333" y="1413" type="line" smooth="no"/>
      <point x="1562" y="1413" type="line" smooth="no"/>
      <point x="1562" y="624" type="line" smooth="no"/>
      <point x="1435" y="624" type="line" smooth="no"/>
      <point x="1435" y="1288" type="line" smooth="no"/>
      <point x="1238" y="624" type="line" smooth="no"/>
      <point x="1060" y="624" type="line" smooth="no"/>
      <point x="864" y="1288" type="line" smooth="no"/>
      <point x="864" y="624" type="line" smooth="no"/>
      <point x="736" y="624" type="line" smooth="no"/>
      <point x="736" y="1413" type="line" smooth="no"/>
      <point x="965" y="1413" type="line" smooth="no"/>
    </contour>
    <contour>
      <point x="626" y="1310" type="line" smooth="no"/>
      <point x="417" y="1310" type="line" smooth="no"/>
      <point x="417" y="624" type="line" smooth="no"/>
      <point x="282" y="624" type="line" smooth="no"/>
      <point x="282" y="1310" type="line" smooth="no"/>
      <point x="72" y="1310" type="line" smooth="no"/>
      <point x="72" y="1413" type="line" smooth="no"/>
      <point x="626" y="1413" type="line" smooth="no"/>
    </contour>
  </outline>
</glyph>
<glyph name="macron" format="1">
  <advance width="1428"/>
  <outline>
    <contour>
      <point x="926" y="1047" type="line" smooth="no"/>
      <point x="924" y="932" type="line" smooth="no"/>
      <point x="500" y="932" type="line" smooth="no"/>
      <point x="502" y="1047" type="line" smooth="no"/>
    </contour>
  </outline>
</glyph>
